<?xml version="1.0" encoding="UTF-8"?>
<svg style="content-visibility:visible;height:100%;width:100%" viewBox="0 0 350 280" xmlns="http://www.w3.org/2000/svg">
<defs>
<clipPath id="a">
<rect width="350" height="280"/>
</clipPath>
</defs>
<g clip-path="url(#a)">
<g transform="matrix(3 0 0 3 151.66 192.99)" display="block">
<g transform="translate(29.583 11.693)">
<path d="m2.646-1.52s14.283 3.191 23.409 4.546c1.935 0.288 3.279 1.915 3.021 3.672l-0.087 0.588c-0.223 1.522-1.586 2.685-3.276 2.791-7.724 0.481-28.787 1.366-37.045-2.606-18.002-18.914 13.978-8.991 13.978-8.991z" fill="#2a2a2a"/>
</g>
</g>
<g transform="matrix(3 0 0 3 10.349 159.6)" display="block">
<g transform="translate(16.105 16.105)">
<path d="m-14.065-3.241c-1.79 7.768 3.056 15.516 10.824 17.306 7.768 1.79 15.516-3.056 17.306-10.824 1.79-7.768-3.057-15.516-10.824-17.306-7.768-1.79-15.516 3.056-17.306 10.824z" fill="#e99457"/>
</g>
<g transform="translate(71.792 20.347)">
<path d="m12.323 0c0 6.805-5.517 12.322-12.322 12.322-6.806 0-12.324-5.517-12.324-12.322s5.518-12.322 12.324-12.322c6.805 0 12.322 5.517 12.322 12.322z" fill="#e99457"/>
</g>
<g transform="translate(45.105 21.897)">
<path d="m33.538-11.793c-1.62-1.277-12.336-5.79-24.965-2.036-12.289 3.653-31.542-5.079-31.542-5.079l-10.569 22.276c26.231 15.54 44.932 12.259 49.188 11.199 1.241-0.275 14.001-3.475 17.276-5.67v-19.749s0.612-0.941 0.612-0.941z" fill="#e99457"/>
</g>
<g transform="translate(38.39 15.913)">
<path d="m10.407-6.929c-7.917 0.786-21.37-3.921-21.37-3.921s-5.685 7.3 0.817 10.284c7.715 3.54 4.625 6.391 12.614 8.948 7.712 2.468 14.18-10.882 7.939-15.311z" fill="#d76f3a"/>
</g>
</g>
<g transform="matrix(3 0 0 3 10.349 159.6)" display="block">
<g transform="translate(16.105 16.105)">
<path d="m-14.065-3.241c-1.79 7.768 3.056 15.516 10.824 17.306 7.768 1.79 15.516-3.056 17.306-10.824 1.79-7.768-3.057-15.516-10.824-17.306-7.768-1.79-15.516 3.056-17.306 10.824z" fill="#e99457"/>
</g>
<g transform="translate(71.792 20.347)">
<path d="m12.323 0c0 6.805-5.517 12.322-12.322 12.322-6.806 0-12.324-5.517-12.324-12.322s5.518-12.322 12.324-12.322c6.805 0 12.322 5.517 12.322 12.322z" fill="#e99457"/>
</g>
<g transform="translate(45.105 21.897)">
<path d="m33.538-11.793c-1.62-1.277-12.336-5.79-24.965-2.036-12.289 3.653-31.542-5.079-31.542-5.079l-10.569 22.276c26.231 15.54 44.932 12.259 49.188 11.199 1.241-0.275 14.001-3.475 17.276-5.67v-19.749s0.612-0.941 0.612-0.941z" fill="#e99457"/>
</g>
<g transform="translate(38.39 15.913)">
<path d="m10.407-6.929c-7.917 0.786-21.37-3.921-21.37-3.921s-5.685 7.3 0.817 10.284c7.715 3.54 4.625 6.391 12.614 8.948 7.712 2.468 14.18-10.882 7.939-15.311z" fill="#d76f3a"/>
</g>
</g>
<g transform="matrix(3 0 0 3 1.817 187.62)" display="block">
<g transform="translate(21.578 16.372)">
<path d="m8.02-10.655c2.301 0.983 4.474 2.083 6.25 3.897 0.02 0.021 0.04 0.042 0.059999 0.063 0.369 0.384 0.72 0.804 0.903 1.304 0.251 0.688 0.161 1.45 0.038 2.172-0.512 3.018-1.53 5.95-2.997 8.638 1.026 0.107 2.053 0.214 3.08 0.321 1.062 0.111 2.16 0.233 3.082 0.772 0.692 0.405 1.224 1.015 1.65 1.687 0.372 0.588 0.959 1.477 1.065 2.173 0.177 1.164-0.901 2.868-2.112 2.991-6.948 0.708-30.291 2.758-37.612-6.37-1.996-2.488-2.755-5.695-2.671-8.839 0.077999-2.877 0.806-5.729 1.937-8.366 0.563-1.313 1.232-2.58 2.006-3.78 0.354-0.55 0.681-1.204 1.28-1.505 1.239-0.624 20.573 3.36 24.041 4.842z" fill="#e99457"/>
</g>
<g transform="translate(36.086 16.132)">
<path d="m-6.812-10.292c13.625 3.258 4.442 15.698 4.442 15.698s8.738-9.9993e-4 9.182 4.886" fill-opacity="0" stroke="#2a2a2a" stroke-linecap="round" stroke-miterlimit="10" stroke-width="1.603"/>
</g>
</g>
<g transform="matrix(2.9982 -.10462 .10462 2.9982 -16.816 130.97)" display="block">
<g transform="translate(15.767 12.497)">
<path d="m-4.511 12.247s-11.006-23.033 10.498-24.459c9.53-0.035 5.857 4.932 2.136 4.23-9.861-1.86-13.285 6.498-7.888 12.149" fill="#e99457"/>
</g>
<g transform="translate(14.611 20.99)">
<path d="m-4.527 0c0 2.501 2.027 4.528 4.528 4.528 2.5 0 4.526-2.027 4.526-4.528s-2.026-4.528-4.526-4.528c-2.501 0-4.528 2.027-4.528 4.528z" fill="#e99457"/>
</g>
</g>
<g transform="matrix(3 0 0 3 181.65 144.46)" display="block">
<g transform="translate(19.55 17.025)">
<path d="m17.633 5.301c-1.434 7.363-9.381 6.516-12.884 10.776-0.574 0.698-24.05-6.678-21.468-11.142 0.267-9.056 4.125-21.71 21.957-18.238 8.189 1.594 14.063 10.035 12.395 18.604z" fill="#e99457"/>
</g>
<g transform="translate(14.692 25.394)">
<path d="m12.323 0c0 6.805-5.517 12.322-12.322 12.322-6.806 0-12.324-5.517-12.324-12.322s5.518-12.322 12.324-12.322c6.805 0 12.322 5.517 12.322 12.322z" fill="#e99457"/>
</g>
</g>
<g transform="matrix(3 0 0 3 199.01 183.69)" display="block">
<g transform="translate(23.113 12.197)">
<path d="m8.129 9.805c9.375-1.318 14.734-15.274 6.925-16.795 0 0-19.385-4.033-19.385-4.033l-0.0020003 0.016c-6.722-0.94-18.53 10.4-11.377 17.931 2.089 2.2 8.605 5.022 23.839 2.881z" fill="#e99457"/>
</g>
<g transform="translate(15.873 11.476)">
<path d="m-10.691 0c0 5.904 4.786 10.69 10.69 10.69 5.905 0 10.692-4.786 10.692-10.69s-4.787-10.69-10.692-10.69c-5.904 0-10.69 4.786-10.69 10.69z" fill="#e99457"/>
</g>
<g transform="translate(36.485 9.189)">
<path d="m0.302 3.837s-2.022-0.394-2.022-0.394c-2.01-0.391-3.323-2.338-2.931-4.349 0.391-2.011 2.338-3.323 4.349-2.932 0 0 2.022 0.395 2.022 0.395 2.01 0.392 3.323 2.339 2.931 4.349-0.391 2.011-2.338 3.322-4.349 2.931z" fill="#2a2a2a"/>
</g>
<g transform="translate(26.844 13.5)">
<path d="m2.071 2.046c-2.276 0.011-4.131-1.826-4.142-4.103" fill-opacity="0" stroke="#2a2a2a" stroke-linecap="round" stroke-miterlimit="10" stroke-width="2.566"/>
</g>
</g>
<g transform="matrix(3 0 0 3 154.39 224.58)" display="block">
<g transform="translate(31.55 8.906)">
<path d="m-1.007-3.243s13.033 2.962 28.445 2.727c2.24-0.034 3.863 1.824 3.675 3.59l-0.063002 0.591c-0.162 1.529-1.649 2.733-3.574 2.886-8.798 0.7-41.61 1.353-51.289-2.39-7.487-12.066 22.806-7.404 22.806-7.404z" fill="#e99457"/>
</g>
<g transform="translate(10.708 13.126)">
<path d="m2.883 1.108s-2.388-0.315-5.766-2.216" fill-opacity="0" stroke="#2a2a2a" stroke-linecap="round" stroke-miterlimit="10" stroke-width="1.603"/>
</g>
<g transform="translate(35.475 6.025)">
<path d="m16.522 2.02c0.163-0.217-18.316-0.434-31.457-4.038" fill-opacity="0" stroke="#2a2a2a" stroke-linecap="round" stroke-miterlimit="10" stroke-width="1.603"/>
</g>
</g>
<g transform="matrix(3 0 0 3 198.12 169.09)" display="block">
<g transform="translate(5.483 11.424)">
<path d="m4.725 0.92c-0.508 2.609-3.035 4.313-5.645 3.805-2.609-0.508-4.313-3.036-3.805-5.645 0.509-2.609 3.036-4.313 5.645-3.805 2.61 0.508 4.313 3.036 3.805 5.645z" fill="#e15d59"/>
</g>
<g transform="translate(10.881 8.427)">
<path d="m3.704-0.987c-2.061 2.03-5.378 2.004-7.408-0.056" fill-opacity="0" stroke="#2a2a2a" stroke-linecap="round" stroke-miterlimit="10" stroke-width="2.566"/>
</g>
<g transform="translate(23.677 7.458)">
<path d="m3.704-0.987c-2.061 2.03-5.378 2.004-7.408-0.056" fill-opacity="0" stroke="#2a2a2a" stroke-linecap="round" stroke-miterlimit="10" stroke-width="2.566"/>
</g>
</g>
<g transform="matrix(3 -8.3257e-6 8.3257e-6 3 136.7 164.36)" display="block">
<g transform="translate(13.106 12.426)">
<path d="m10.241-12.176c-20.92 4.047-23.096 11.577-20.79 17.817 2.306 6.239 12.394 6.535 16.994 2.06 6.411-6.236 3.796-19.877 3.796-19.877z" fill="#2a2a2a"/>
</g>
</g>
<g transform="matrix(.78366 0 0 .78366 322.31 137.32)" display="block" fill="#b2b2b2" font-family="Gaegu" font-size="80" font-weight="400" opacity=".27899" aria-label="z">
<g display="inherit" opacity="1" stroke-linejoin="round">
<g display="block" opacity="1">
<path d="m28.48-1.6c0-1.28-0.64-2.21-1.92-2.8h-0.48c-0.21 0-1-0.03-2.36-0.08s-2.91-0.13-4.64-0.24-3.44-0.28-5.12-0.52-2.97-0.57-3.88-1c0.11-0.37 0.47-0.88 1.08-1.52s1.28-1.31 2-2 1.41-1.35 2.08-1.96 1.16-1.13 1.48-1.56c0.32-0.11 0.75-0.36 1.28-0.76s1.07-0.87 1.6-1.4 1.05-1.08 1.56-1.64 0.89-1.05 1.16-1.48c0.32-0.27 0.71-0.64 1.16-1.12s0.89-1.01 1.32-1.6 0.8-1.23 1.12-1.92 0.48-1.39 0.48-2.08c0-0.64-0.08-1.41-0.24-2.32-2.13-0.75-4.27-1.29-6.4-1.64s-3.97-0.52-5.52-0.52c-2.13 0.27-3.76 0.48-4.88 0.64s-1.93 0.33-2.44 0.52-0.79 0.44-0.84 0.76-0.08 0.8-0.08 1.44c0 1.6 0.48 2.48 1.44 2.64 0.53 0 1.21-0.03 2.04-0.08s1.64-0.12 2.44-0.2 1.52-0.16 2.16-0.24 1.01-0.12 1.12-0.12c1.12 0 2.07 0.05 2.84 0.16s1.45 0.27 2.04 0.48c-0.91 1.39-2.12 2.84-3.64 4.36s-3.29 3.11-5.32 4.76c-1.97 2.24-3.68 3.95-5.12 5.12-1.65 2.29-2.59 3.89-2.8 4.8 0.96 1.6 2.85 2.93 5.68 4 0.16 0 0.65 0.05 1.48 0.16s1.77 0.23 2.84 0.36 2.17 0.25 3.32 0.36 2.12 0.16 2.92 0.16c0.32 0 0.81 0.04 1.48 0.12s1.36 0.16 2.08 0.24 1.39 0.16 2 0.24 1.05 0.12 1.32 0.12h0.24c1.28-0.32 1.92-1.2 1.92-2.64z"/>
</g>
</g>
</g>
<g transform="matrix(.71876 0 0 .71876 323.5 167.42)" display="block" fill="#b2b2b2" font-family="Gaegu" font-size="80" font-weight="400" opacity=".62101" aria-label="z">
<g display="inherit" opacity="1" stroke-linejoin="round">
<g display="block" opacity="1">
<path d="m28.48-1.6c0-1.28-0.64-2.21-1.92-2.8h-0.48c-0.21 0-1-0.03-2.36-0.08s-2.91-0.13-4.64-0.24-3.44-0.28-5.12-0.52-2.97-0.57-3.88-1c0.11-0.37 0.47-0.88 1.08-1.52s1.28-1.31 2-2 1.41-1.35 2.08-1.96 1.16-1.13 1.48-1.56c0.32-0.11 0.75-0.36 1.28-0.76s1.07-0.87 1.6-1.4 1.05-1.08 1.56-1.64 0.89-1.05 1.16-1.48c0.32-0.27 0.71-0.64 1.16-1.12s0.89-1.01 1.32-1.6 0.8-1.23 1.12-1.92 0.48-1.39 0.48-2.08c0-0.64-0.08-1.41-0.24-2.32-2.13-0.75-4.27-1.29-6.4-1.64s-3.97-0.52-5.52-0.52c-2.13 0.27-3.76 0.48-4.88 0.64s-1.93 0.33-2.44 0.52-0.79 0.44-0.84 0.76-0.08 0.8-0.08 1.44c0 1.6 0.48 2.48 1.44 2.64 0.53 0 1.21-0.03 2.04-0.08s1.64-0.12 2.44-0.2 1.52-0.16 2.16-0.24 1.01-0.12 1.12-0.12c1.12 0 2.07 0.05 2.84 0.16s1.45 0.27 2.04 0.48c-0.91 1.39-2.12 2.84-3.64 4.36s-3.29 3.11-5.32 4.76c-1.97 2.24-3.68 3.95-5.12 5.12-1.65 2.29-2.59 3.89-2.8 4.8 0.96 1.6 2.85 2.93 5.68 4 0.16 0 0.65 0.05 1.48 0.16s1.77 0.23 2.84 0.36 2.17 0.25 3.32 0.36 2.12 0.16 2.92 0.16c0.32 0 0.81 0.04 1.48 0.12s1.36 0.16 2.08 0.24 1.39 0.16 2 0.24 1.05 0.12 1.32 0.12h0.24c1.28-0.32 1.92-1.2 1.92-2.64z"/>
</g>
</g>
</g>
<g transform="matrix(.56899 0 0 .56899 306.69 186.36)" display="block" fill="#b2b2b2" font-family="Gaegu" font-size="80" font-weight="400" opacity=".8" aria-label="z">
<g display="inherit" opacity="1" stroke-linejoin="round">
<g display="block" opacity="1">
<path d="m28.48-1.6c0-1.28-0.64-2.21-1.92-2.8h-0.48c-0.21 0-1-0.03-2.36-0.08s-2.91-0.13-4.64-0.24-3.44-0.28-5.12-0.52-2.97-0.57-3.88-1c0.11-0.37 0.47-0.88 1.08-1.52s1.28-1.31 2-2 1.41-1.35 2.08-1.96 1.16-1.13 1.48-1.56c0.32-0.11 0.75-0.36 1.28-0.76s1.07-0.87 1.6-1.4 1.05-1.08 1.56-1.64 0.89-1.05 1.16-1.48c0.32-0.27 0.71-0.64 1.16-1.12s0.89-1.01 1.32-1.6 0.8-1.23 1.12-1.92 0.48-1.39 0.48-2.08c0-0.64-0.08-1.41-0.24-2.32-2.13-0.75-4.27-1.29-6.4-1.64s-3.97-0.52-5.52-0.52c-2.13 0.27-3.76 0.48-4.88 0.64s-1.93 0.33-2.44 0.52-0.79 0.44-0.84 0.76-0.08 0.8-0.08 1.44c0 1.6 0.48 2.48 1.44 2.64 0.53 0 1.21-0.03 2.04-0.08s1.64-0.12 2.44-0.2 1.52-0.16 2.16-0.24 1.01-0.12 1.12-0.12c1.12 0 2.07 0.05 2.84 0.16s1.45 0.27 2.04 0.48c-0.91 1.39-2.12 2.84-3.64 4.36s-3.29 3.11-5.32 4.76c-1.97 2.24-3.68 3.95-5.12 5.12-1.65 2.29-2.59 3.89-2.8 4.8 0.96 1.6 2.85 2.93 5.68 4 0.16 0 0.65 0.05 1.48 0.16s1.77 0.23 2.84 0.36 2.17 0.25 3.32 0.36 2.12 0.16 2.92 0.16c0.32 0 0.81 0.04 1.48 0.12s1.36 0.16 2.08 0.24 1.39 0.16 2 0.24 1.05 0.12 1.32 0.12h0.24c1.28-0.32 1.92-1.2 1.92-2.64z"/>
</g>
</g>
</g>
</g>
</svg>
