<?xml version="1.0" encoding="UTF-8"?>
<svg style="content-visibility:visible;height:100%;width:100%" viewBox="0 0 350 280" xmlns="http://www.w3.org/2000/svg">
<defs>
<clipPath id="c">
<rect width="350" height="280"/>
</clipPath>
<mask id="b" mask-type="alpha">
<use href="#__lottie_element_973"/>
</mask>
<mask id="a" mask-type="alpha">
<use href="#__lottie_element_975"/>
</mask>
</defs>
<g clip-path="url(#c)">
<g transform="matrix(3 0 0 3 68.748 216.77)" display="block">
<g transform="translate(23.208 8.955)">
<path d="m-3.361-5.456s14.084 3.282 23.08 4.636c1.907 0.287 3.238 2.038 2.993 3.95l-0.082001 0.641c-0.212 1.656-1.551 2.938-3.215 3.075-7.606 0.623-28.35 1.859-36.503-2.349-5.87-13.201 13.727-9.953 13.727-9.953z" fill="#2a2a2a"/>
</g>
</g>
<g transform="matrix(3 0 0 3 212.25 126.57)" display="block">
<g transform="translate(9.211 31.144)">
<path d="m4.7063-26.584s0.64628 18.519 0.54599 22.17c-0.11332 4.2979 0.037517 9.148 0.043517 9.39-0.063 3.805 3.4252 7.105 1.7162 10.735-1.014 1.784-3.878 1.218-5.661 0.205-2.931-1.902-4.0662-5.399-5.1602-8.587-0.18-0.655-1.9078-6.9873-2.3295-9.665-0.75345-4.8544-1.5213-9.309-1.6573-13.375-0.085-2.545 0.067-4.827 0.554-6.642 11.653-8.541 11.948-4.2306 11.948-4.2306z" fill="#2a2a2a"/>
</g>
</g>
<g transform="matrix(2.9999 .022469 -.022469 2.9999 56.958 54.185)" display="block">
<g transform="translate(18.24 56.869)">
<path d="m-13.17 10.95c4.82 5.797 14.623 5.593 21.897-0.454 7.273-6.048 9.263-15.649 4.443-21.446-4.82-5.797-14.623-5.593-21.897 0.454-7.273 6.048-9.263 15.649-4.443 21.446z" fill="#e99457"/>
</g>
<g transform="translate(35.514 41.188)">
<path d="m27.49-1.071s-13.744 15.858-42.672 28.576l-12.308-20.921s24.164-19.85 32.578-34.089" fill="#e99457"/>
</g>
<g transform="translate(43.039 35.993)">
<path d="m-0.673-28.683c-0.856 3.548-5.185 10.418-8.806 15.316-1.555 2.102-2.981 3.844-3.943 4.799-14.917 14.81 41.76 37.25 37.164-6.569-0.198-1.891-0.5-3.893-0.937-6.037" fill="#e99457"/>
</g>
<g transform="translate(53.657 12.525)">
<path d="m12.276 0c0 6.779-5.497 12.275-12.276 12.275-6.78 0-12.276-5.496-12.276-12.275s5.496-12.275 12.276-12.275c6.779 0 12.276 5.496 12.276 12.275z" fill="#e99457"/>
</g>
<g transform="translate(33.395 33.917)">
<path d="m0.604-11.629c-11.052 12.706-18.044 18.512-18.044 18.512s6.96 7.506 13.384 3.566c7.623-4.675 8.081-1.579 14.908-7.143 6.589-5.371-2.576-17.695-10.248-14.935z" fill="#d76f3a"/>
</g>
</g>
<g transform="matrix(3 0 0 3 39.255 190.46)" display="block">
<g transform="translate(26.487 16.063)">
<path d="m-1.941-6.453s8.575 10.043 24.716 10.264c1.399 0.019 2.632 1.261 2.9 2.905l0.237 1.465c0.325 1.994-0.796 3.818-2.474 4.016-7.531 0.89-32.821 3.616-40.299-3.368-9.377-8.757 6.09-24.642 14.92-15.282z" fill="#e99457"/>
</g>
<g transform="translate(40.163 11.065)">
<path d="m-2.833 8.143c-0.271 0-0.538-0.135-0.694-0.381-0.242-0.382-0.128-0.888 0.254-1.13 5.389-3.411 5.308-13.838 5.306-13.943-6e-3 -0.452 0.356-0.824 0.809-0.83 0.45-0.0010004 0.823 0.354 0.829 0.806 7e-3 0.466 0.098 11.449-6.067 15.351-0.136 0.086-0.287 0.127-0.437 0.127z" fill="#2a2a2a"/>
</g>
</g>
<g transform="matrix(3 0 0 3 191.89 131.19)" display="block">
<g transform="translate(9.091 24.444)">
<path d="m5.519-4.355s-0.14306 3.0147-0.22347 6.64c-0.090647 4.2984 0.037427 9.149 0.043427 9.391-0.063 3.805 3.502 7.105 1.793 10.735-1.014 1.784-3.878 1.217-5.661 0.204-2.931-1.902-4.143-5.398-5.237-8.586-0.18-0.655-1.8851-6.9919-2.3294-9.666-0.78782-4.8051-1.4445-9.308-1.5805-13.374-0.085-2.545 0.067-4.828 0.554-6.643 11.653-8.541 12.641 11.299 12.641 11.299z" fill="#e99457"/>
</g>
</g>
<g transform="matrix(2.9979 .11232 -.11232 2.9979 191.14 182.49)" display="block">
<g transform="translate(2.149 5.386)">
<path d="m0.964 5.137c-0.281 0-0.555-0.145-0.707-0.405-1.553-2.648-2.094-8.685-2.116-8.94-0.04-0.451 0.294-0.849 0.744-0.888 0.447-0.041 0.848 0.294 0.887 0.744 5e-3 0.059 0.531 5.925 1.898 8.256 0.229 0.39 0.098 0.89-0.292 1.119-0.131 0.077-0.273 0.114-0.414 0.114z" fill="#2a2a2a"/>
</g>
</g>
<g transform="matrix(2.4491 -1.7326 1.7326 2.4491 -.03097 205.59)" display="block">
<g transform="translate(15.767 12.497)">
<path d="m-4.511 12.247s-11.006-23.033 10.498-24.459c9.53-0.035 5.857 4.932 2.136 4.23-9.861-1.86-13.285 6.498-7.888 12.149" fill="#e99457"/>
</g>
<g transform="translate(14.611 20.99)">
<path d="m-4.527 0c0 2.501 2.027 4.528 4.528 4.528 2.5 0 4.526-2.027 4.526-4.528s-2.026-4.528-4.526-4.528c-2.501 0-4.528 2.027-4.528 4.528z" fill="#e99457"/>
</g>
</g>
<g transform="matrix(2.9997 .041124 -.041124 2.9997 177.54 1.6234)" display="block">
<g transform="translate(18.454 16.402)">
<path d="m7.516 16.152c-0.014-0.887 0.124-1.676 0.369-2.397 1.877-5.519 10.319-6.841 9.575-14.616-0.841-8.789-8.961-15.291-17.361-14.487-17.053 1.632-18.303 13.371-16.497 22.133 0.131 0.636 0.277 1.259 0.435 1.859" fill="#e99457"/>
</g>
<g transform="translate(13.783 30.261)">
<path d="m12.276 0c0 6.779-5.497 12.275-12.276 12.275-6.78 0-12.276-5.496-12.276-12.275s5.496-12.275 12.276-12.275c6.779 0 12.276 5.496 12.276 12.275z" fill="#e99457"/>
</g>
</g>
<g transform="matrix(2.9997 .041124 -.041124 2.9997 195.56 27.856)" display="block">
<g transform="translate(21.728 12.997)">
<path d="m11.571 6.297c8.715-3.969 9.907-19.044 1.896-18.277l-19.96 1.65 0.0030003 0.018c-6.79 1.018-14.988 15.406-5.888 20.658 2.657 1.533 9.788 2.401 23.949-4.049z" fill="#e99457"/>
</g>
<g transform="translate(34.706 5.362)">
<path d="m1.395 3.635-2.074 0.198c-2.062 0.198-3.894-1.314-4.092-3.377-0.197-2.062 1.315-3.894 3.377-4.091l2.073-0.199c2.063-0.197 3.895 1.315 4.092 3.377 0.197 2.063-1.314 3.895-3.376 4.092z" fill="#2a2a2a"/>
</g>
<g transform="translate(26.592 12.312)">
<path d="m1.398 2.97c-2.396 0-4.614-1.558-5.34-3.967-0.223-0.743 0.198-1.526 0.94-1.749 0.742-0.224 1.526 0.197 1.749 0.939 0.44 1.46 1.987 2.288 3.445 1.851 0.744-0.223 1.526 0.198 1.749 0.94 0.224 0.742-0.197 1.525-0.94 1.749-0.533 0.16-1.073 0.237-1.603 0.237z" fill="#2a2a2a"/>
</g>
<g transform="translate(27.026 15.618)">
<path d="m-0.29369 4.427c-1.6105-0.10284-2.5398-1.5973-2.462-3.218 0.077822-0.87735-0.17232-3.287-0.17232-3.287 0-2.173 2.33 1.899 5.405 0.682 0.221-0.087 0.451 0.123 0.451 0.36l-0.11859 2.7324c-0.10284 1.6105-1.4926 2.8335-3.1031 2.7307z" fill="#f93e26"/>
</g>
<g transform="translate(17.571 23.824)">
<path d="m0.957 1.066c-0.821 0-1.965-0.091-3.345-0.433-0.439-0.109-0.706-0.554-0.597-0.992 0.109-0.439 0.554-0.706 0.992-0.597 2.447 0.608 4.022 0.312 4.037 0.308 0.442-0.086 0.873 0.199 0.962 0.641 0.089 0.442-0.195 0.874-0.636 0.964-0.04 9e-3 -0.545 0.109-1.413 0.109z" fill="#2a2a2a"/>
</g>
</g>
<g transform="matrix(2.9997 .041124 -.041124 2.9997 190.45 16.085)" display="block">
<g transform="translate(5.353 15.689)">
<path d="m4.847-0.464c0.256 2.677-1.706 5.054-4.383 5.311-2.677 0.256-5.054-1.707-5.31-4.383-0.257-2.677 1.706-5.055 4.382-5.311 2.677-0.256 5.055 1.706 5.311 4.383z" fill="#e15d59"/>
</g>
</g>
<use href="#__lottie_element_975"/>
<g display="block" mask="url(#a)">
<use href="#__lottie_element_974"/>
</g>
<g transform="matrix(2.9575 -.50286 .50286 2.9575 196.34 32.713)" display="block">
<g transform="translate(6.497 3.686)" opacity="0">
<path d="m-4.458-0.228s1.831 1.661 4.295 1.787c2.464 0.126 4.63-1.331 4.63-1.331" fill-opacity="0" stroke="#2a2a2a" stroke-linecap="round" stroke-width="2"/>
</g>
</g>
<g transform="matrix(2.9997 .041071 -.041071 2.9997 190.45 16.086)" display="block">
<g transform="translate(9.245 8.567)">
<path d="m6.164-0.59s-2.448 3.53-5.852 3.855c-3.404 0.326-6.476-2.675-6.476-2.675s2.448-3.53 5.852-3.856c3.404-0.325 6.476 2.676 6.476 2.676z" fill="#fff"/>
</g>
<g transform="translate(11.148 7.923)">
<path d="m3.355-0.321c0.177 1.853-1.181 3.498-3.034 3.676-1.852 0.177-3.498-1.181-3.675-3.034-0.178-1.853 1.181-3.498 3.033-3.676 1.853-0.177 3.499 1.181 3.676 3.034z" fill="#2a2a2a"/>
</g>
</g>
<use href="#__lottie_element_973"/>
<g display="block" mask="url(#b)">
<use href="#__lottie_element_972"/>
</g>
<g transform="matrix(2.9575 -.50286 .50286 2.9575 232.12 22.29)" display="block">
<g transform="translate(6.497 3.686)" opacity="0">
<path d="m-4.458-0.228s1.831 1.661 4.295 1.787c2.464 0.126 4.63-1.331 4.63-1.331" fill-opacity="0" stroke="#2a2a2a" stroke-linecap="round" stroke-width="2"/>
</g>
</g>
<g transform="matrix(2.9997 .041071 -.041071 2.9997 190.45 16.086)" display="block">
<g transform="translate(21.38 4.318)">
<path d="m6.164-0.59s-2.448 3.53-5.852 3.855c-3.404 0.326-6.476-2.675-6.476-2.675s2.448-3.53 5.852-3.856c3.404-0.325 6.476 2.676 6.476 2.676z" fill="#fff"/>
</g>
<g transform="translate(22.853 3.782)">
<path d="m3.355-0.321c0.177 1.853-1.182 3.498-3.035 3.676-1.852 0.177-3.497-1.181-3.674-3.034-0.177-1.853 1.18-3.498 3.032-3.676 1.853-0.177 3.5 1.181 3.677 3.034z" fill="#2a2a2a"/>
</g>
</g>
<g transform="matrix(2.9999 .022326 -.022326 2.9999 129.63 27.092)" display="block">
<g transform="translate(13.04 14.569)">
<path d="m6.339-14.318c-19.129 9.93-19.079 17.856-15.052 23.246 4.028 5.39 13.897 2.781 17.074-2.879 4.429-7.888-2.022-20.367-2.022-20.367z" fill="#2a2a2a"/>
</g>
</g>
</g>
</svg>
