<?xml version="1.0" encoding="UTF-8"?>
<svg style="content-visibility:visible;height:100%;width:100%" viewBox="0 0 350 280" xmlns="http://www.w3.org/2000/svg">
<defs>
<clipPath id="b">
<rect width="350" height="280"/>
</clipPath>
<filter id="f">
<feMorphology in="SourceGraphic" radius="4"/>
</filter>
<mask id="g">
<rect transform="matrix(.33449 0 0 .33333 -13.17 -24.651)" width="350" height="280" fill="#fff"/>
<path d="m1.146-0.081h-0.499v0.972h0.499v-0.972" filter="url(#f)" stroke="#000"/>
</mask>
<mask id="e">
<rect transform="matrix(.33333 -.00029247 .00029247 .33333 -9.9306 -24.893)" width="350" height="280" fill="#fff"/>
<path d="m0.588-0.025s-0.593 0.075-0.593 0.075l-0.177 0.303 0.294 0.209 0.5-0.04 0.211-0.054v-0.188s-0.235-0.305-0.235-0.305"/>
</mask>
<mask id="d">
<path d="m0 0h350v280h-350v-280m0.588-0.025s-0.593 0.075-0.593 0.075l-0.177 0.303 0.294 0.209 0.5-0.04 0.211-0.054v-0.188s-0.235-0.305-0.235-0.305" fill="#fff" filter="null" stroke="#fff" stroke-width="8"/>
</mask>
<clipPath id="c">
<path d="m52.183 2.19v54.439l21.95-0.14v-54.439l-21.95 0.14" fill="#fff"/>
</clipPath>
<mask id="a" mask-type="alpha">
<use href="#__lottie_element_1050"/>
</mask>
<mask id="h" mask-type="alpha">
<use href="#__lottie_element_1051"/>
</mask>
</defs>
<g clip-path="url(#b)">
<g transform="matrix(3 .0032429 -.0032429 3 206.11 153.5)" display="block">
<g transform="translate(10.691 20.152)">
<path d="m1.448-1.372s-2.043 1.601-1.371 7.341c0.049 0.41 0.111 0.842 0.19 1.295 0.463 3.13 2.758 5.752 4.398 8.703 0.328 0.656 0 1.639-0.656 2.295-2.295 1.639-5.573 1.312-7.54-0.328-1.64-1.967-2.624-4.261-3.835-6.547-0.195-0.432-0.383-0.882-0.561-1.351-1.955-5.163-2.514-12.742 6.187-25.821 12.18-4.117 3.188 14.413 3.188 14.413z" fill="#2a2a2a"/>
</g>
</g>
<g transform="matrix(3 .0021935 -.0021935 3 61.353 65.288)" display="block">
<g transform="translate(17.053 34.358)">
<path d="m3.42-7.121s-7.314 3.488 5.902 27.432c0.275 0.488 0.556 0.985 0.848 1.491 0.132 0.473 0.376 0.948 0.692 1.424 0.316 0.475 0.704 0.952 1.124 1.428 1.538 1.912 3.833 3.224 4.489 5.847 0.328 1.967-1.311 2.951-2.623 2.951-2.295 0.656-4.918-0.984-6.184-2.827-0.508-0.543-1.006-1.112-1.499-1.659-0.493-0.548-0.981-1.073-1.467-1.529-0.397-0.47-0.808-0.961-1.231-1.471-8.029-9.696-20.274-26.408-19.618-39.438 1.038-20.636 21.495-14.488 19.567 6.351z" fill="#2a2a2a"/>
</g>
</g>
<g transform="matrix(2.9896 0 0 3 39.372 73.952)" display="block" mask="url(#g)">
<g transform="translate(52.436 36.67)">
<path d="m-19.818 0c0 10.945 8.873 19.819 19.819 19.819 10.945 0 19.817-8.874 19.817-19.819s-8.872-19.819-19.817-19.819c-10.946 0-19.819 8.874-19.819 19.819z" fill="#e99457"/>
</g>
<g transform="translate(18.508 16.643)">
<path d="m-14.194-9.259c-4.064 6.229-1.003 15.425 6.836 20.538 7.84 5.114 17.489 4.209 21.552-2.02 4.064-6.23 1.003-15.425-6.836-20.539-7.839-5.113-17.488-4.208-21.552 2.021z" fill="#e99457"/>
</g>
<g transform="translate(34.118 29.565)">
<path d="m8.975 24.59s-15.725-6.157-36.2-29.778l18.343-19.402s19.807 16.201 36.107 18.563" fill="#e99457"/>
</g>
<g transform="translate(49.566 42.479)">
<path d="m22.304-12.49c-3.094 1.856-6.188 1.856-9.9 1.237-9.639-2.409-8.72-11.857-12.092-19.206-1.316 5.093-6.816 11.26-10.02 14.441-14.86 14.752 34.063 46.477 34.275 1.635-0.656 0.68-1.399 1.317-2.263 1.893z" fill="#e99457"/>
</g>
<g transform="translate(32.301 20.093)">
<path d="m11.749-2.326c-14.502-8.842-19.215-13.216-19.215-13.216s-8.323 5.247-3.32 10.969c5.937 6.79 1.483 8.623 8.17 14.471 6.454 5.644 18.405-5.062 14.365-12.224z" fill="#d76f3a"/>
</g>
</g>
<g transform="matrix(3 0 0 3 38.749 73.952)" clip-path="url(#c)" display="block">
<g transform="translate(52.436 36.67)">
<path d="m-19.818 0c0 10.945 8.873 19.819 19.819 19.819 10.945 0 19.817-8.874 19.817-19.819s-8.872-19.819-19.817-19.819c-10.946 0-19.819 8.874-19.819 19.819z" fill="#e99457"/>
</g>
<g transform="translate(18.508 16.643)">
<path d="m-14.194-9.259c-4.064 6.229-1.003 15.425 6.836 20.538 7.84 5.114 17.489 4.209 21.552-2.02 4.064-6.23 1.003-15.425-6.836-20.539-7.839-5.113-17.488-4.208-21.552 2.021z" fill="#e99457"/>
</g>
<g transform="translate(34.118 29.565)">
<path d="m8.975 24.59s-15.725-6.157-36.2-29.778l18.343-19.402s19.807 16.201 36.107 18.563" fill="#e99457"/>
</g>
<g transform="translate(49.566 42.479)">
<path d="m22.304-12.49c-3.094 1.856-6.188 1.856-9.9 1.237-9.639-2.409-8.72-11.857-12.092-19.206-1.316 5.093-6.816 11.26-10.02 14.441-14.86 14.752 34.063 46.477 34.275 1.635-0.656 0.68-1.399 1.317-2.263 1.893z" fill="#e99457"/>
</g>
<g transform="translate(32.134 20.26)">
<path d="m11.749-2.326c-14.502-8.842-19.215-13.216-19.215-13.216s-8.323 5.247-3.32 10.969c5.937 6.79 1.483 8.623 8.17 14.471 6.454 5.644 18.405-5.062 14.365-12.224z" fill="#d76f3a"/>
</g>
</g>
<g transform="matrix(3 .0026322 -.0026322 3 29.726 74.705)" display="block" mask="url(#e)">
<g transform="translate(16.591 35.052)">
<path d="m4.983-14.426s-7.593 7.751 3.154 32.493c0.182 0.42 0.37 0.843 0.565 1.271 0.753 4.644 7.639 7.267 5.672 11.202-2.623 4.262-7.542-0.328-9.474-3.473-0.344-0.444-0.703-0.911-1.076-1.399-7.448-9.771-20.165-28.118-19.077-41.035 1.637-19.435 22.746-18.588 20.236 0.941z" fill="#e99457"/>
</g>
</g>
<g transform="matrix(3 .0026322 -.0026322 3 29.726 74.705)" display="block" mask="url(#d)">
<g transform="translate(21.24 29.201)">
<path d="m-0.933 6.288c-0.126 0-0.254-0.028-0.374-0.09-0.403-0.207-0.561-0.701-0.354-1.104 1.863-3.623 1.433-10.411 1.428-10.479-0.03-0.452 0.312-0.842 0.763-0.873 0.455-0.031 0.842 0.311 0.873 0.763 0.02 0.296 0.466 7.309-1.606 11.339-0.146 0.283-0.433 0.444-0.73 0.444z" fill="#2a2a2a"/>
</g>
</g>
<g transform="matrix(2.8947 -.74989 .74729 2.9048 10.035 45.191)" display="block">
<g transform="translate(7.013 12.322)">
<path d="m2.252 12.072s-9.016-8.999-2.436-22.659c0.435-0.903 1.25-1.455 2.123-1.465 1.734-0.02 2.973 2.043 2.352 3.975-1.475 4.598-2.906 9.304 2.473 15.555" fill="#e99457"/>
</g>
</g>
<g transform="matrix(2.9986 .050335 -.050319 2.9996 182.82 32.889)" display="block">
<g transform="translate(18.749 27.644)">
<path d="m7.599 5.258c-0.123-7.768 10.901-8.312 10.051-17.197-0.851-8.884-9.058-15.454-17.548-14.642-18.489 1.77-18.601 15.294-16.234 24.25-0.014 0.056-0.035999 0.113-0.049999 0.17-1.015 19.58-1.247 26.527 8.392 28.936 3.712 0.619 9.868-1.912 12.962-3.768 0.864-0.577 2.734-5 2.902-9.091 0.013-2.623-0.132-5.492-0.475-8.658z" fill="#e99457"/>
</g>
</g>
<g transform="matrix(2.9986 .050335 -.050319 2.9996 201.25 59.464)" display="block">
<g transform="translate(21.959 13.134)">
<path d="m11.696 6.365c8.809-4.012 10.013-19.249 1.916-18.474l-20.174 1.668 0.0019999 0.018c-6.862 1.029-15.149 15.572-5.951 20.88 2.686 1.55 9.894 2.427 24.207-4.092z" fill="#e99457"/>
</g>
<g transform="translate(35.078 5.417)">
<path d="m1.41 3.674-2.096 0.202c-2.085 0.199-3.938-1.329-4.137-3.414-0.2-2.084 1.33-3.936 3.414-4.136l2.097-0.2c2.084-0.2 3.936 1.328 4.135 3.412 0.2 2.085-1.328 3.936-3.413 4.136z" fill="#2a2a2a"/>
</g>
<g transform="translate(26.875 12.449)">
<path d="m1.404 2.889c-0.9 0-1.792-0.222-2.608-0.66-1.3-0.698-2.252-1.861-2.677-3.275-0.209-0.693 0.185-1.425 0.879-1.633 0.692-0.21 1.425 0.184 1.634 0.878 0.223 0.742 0.722 1.353 1.405 1.72 0.683 0.367 1.469 0.445 2.211 0.222 0.694-0.209 1.425 0.184 1.634 0.878 0.208 0.694-0.185 1.424-0.879 1.633-0.527 0.158-1.064 0.237-1.599 0.237z" fill="#2a2a2a"/>
</g>
<g transform="translate(16.877 24.507)">
<path d="m0.965 1.068c-0.829 0-1.985-0.091-3.379-0.436-0.439-0.11-0.707-0.554-0.598-0.994 0.11-0.439 0.553-0.706 0.993-0.598 2.469 0.613 4.065 0.316 4.08 0.313 0.444-0.091 0.877 0.194 0.968 0.638 0.092 0.443-0.194 0.876-0.637 0.968-0.04 8e-3 -0.551 0.109-1.427 0.109z" fill="#2a2a2a"/>
</g>
</g>
<g transform="matrix(2.9988 .040388 -.040375 2.9997 201.44 60.142)" display="block">
<g transform="translate(27.026 15.618)">
<path d="m-0.12545 4.3262c-1.6142-0.043927-2.7622-1.4333-2.7289-3.0519 0.033242-0.37476-0.073607-3.3523-0.073607-3.3523 0-2.173 2.33 1.899 5.405 0.682 0.221-0.087 0.451 0.123 0.451 0.36l-0.050654 2.5185c-0.043927 1.6142-1.3886 2.8876-3.0028 2.8437z" fill="#f93e26"/>
</g>
</g>
<g transform="matrix(2.9999 .0032429 -.0032428 3 167.14 156.67)" display="block">
<g transform="translate(10.117 20.551)">
<path d="m1.955-0.062s-1.781 2.389 1.119 8.645c0.185 0.399 0.758 2.838 5.963 7.845 0.83 0.798 0.782 2.161-0.135 2.858-1.239 0.943-3.494 1.015-5.021 0.797-3.279-0.656-7.692-6.274-7.987-6.681-3.239-4.471-5.761-11.638-0.79-26.539 10.676-7.164 6.851 13.075 6.851 13.075z" fill="#e99457"/>
</g>
</g>
<g transform="matrix(2.9896 0 0 3 167.19 156.72)" display="block">
<g transform="translate(3.417 21.135)">
<path d="m-0.586 6.61c-0.372 0-0.708-0.255-0.797-0.632-1.782-7.564 2.879-12.088 3.078-12.277 0.329-0.311 0.848-0.297 1.159 0.031 0.311 0.328 0.298 0.846-0.029 1.157-0.174 0.167-4.171 4.097-2.612 10.713 0.103 0.441-0.17 0.882-0.61 0.986-0.063 0.015-0.127 0.022-0.189 0.022z" fill="#2a2a2a"/>
</g>
<g transform="translate(12.955 25.948)">
<path d="m-0.307 2.951c-0.392 0-0.739-0.282-0.807-0.682-0.502-2.94 1.144-4.785 1.214-4.862 0.305-0.334 0.823-0.358 1.158-0.054 0.333 0.304 0.358 0.819 0.057 1.154-0.054 0.062-1.175 1.367-0.813 3.487 0.076 0.446-0.224 0.869-0.67 0.945-0.047 0.0080001-0.093 0.012-0.139 0.012z" fill="#2a2a2a"/>
</g>
</g>
<g transform="matrix(2.9986 .050335 -.050319 2.9996 196.12 47.55)" display="block">
<g transform="translate(5.408 15.855)">
<path d="m4.899-0.469c0.259 2.706-1.724 5.109-4.43 5.368-2.706 0.259-5.109-1.725-5.368-4.43-0.259-2.706 1.725-5.109 4.43-5.368 2.706-0.259 5.109 1.724 5.368 4.43z" fill="#e15d59"/>
</g>
</g>
<use href="#__lottie_element_1051"/>
<g display="block" mask="url(#h)">
<g transform="matrix(2.9988 .040335 -.040323 2.9997 198.82 49.682)">
<g transform="translate(11.148 7.923)">
<path d="m3.355-0.321c0.177 1.853-1.181 3.498-3.034 3.676-1.852 0.177-3.498-1.181-3.675-3.034-0.178-1.853 1.181-3.498 3.033-3.676 1.853-0.177 3.499 1.181 3.676 3.034z" fill="#2a2a2a"/>
</g>
</g>
</g>
<g transform="matrix(2.9565 -.50359 .50343 2.9574 204.72 66.307)" display="block">
<g transform="translate(6.497 3.686)" opacity="0">
<path d="m-4.458-0.228s1.831 1.661 4.295 1.787c2.464 0.126 4.63-1.331 4.63-1.331" fill-opacity="0" stroke="#2a2a2a" stroke-linecap="round" stroke-width="2"/>
</g>
</g>
<g transform="matrix(2.9988 .040335 -.040323 2.9997 198.82 49.682)" display="block">
<g transform="translate(9.245 8.567)">
<path d="m6.164-0.59s-2.448 3.53-5.852 3.855c-3.404 0.326-6.476-2.675-6.476-2.675s2.448-3.53 5.852-3.856c3.404-0.325 6.476 2.676 6.476 2.676z" fill="#fff"/>
</g>
<g transform="translate(11.148 7.923)">
<path d="m3.355-0.321c0.177 1.853-1.181 3.498-3.034 3.676-1.852 0.177-3.498-1.181-3.675-3.034-0.178-1.853 1.181-3.498 3.033-3.676 1.853-0.177 3.499 1.181 3.676 3.034z" fill="#2a2a2a"/>
</g>
</g>
<use href="#__lottie_element_1050"/>
<g display="block" mask="url(#a)">
<g transform="matrix(2.9988 .040335 -.040323 2.9997 198.82 49.682)">
<g transform="translate(22.853 3.782)">
<path d="m3.355-0.321c0.177 1.853-1.182 3.498-3.035 3.676-1.852 0.177-3.497-1.181-3.674-3.034-0.177-1.853 1.18-3.498 3.032-3.676 1.853-0.177 3.5 1.181 3.677 3.034z" fill="#2a2a2a"/>
</g>
</g>
</g>
<g transform="matrix(2.9565 -.50359 .50343 2.9574 240.48 55.876)" display="block">
<g transform="translate(6.497 3.686)" opacity="0">
<path d="m-4.458-0.228s1.831 1.661 4.295 1.787c2.464 0.126 4.63-1.331 4.63-1.331" fill-opacity="0" stroke="#2a2a2a" stroke-linecap="round" stroke-width="2"/>
</g>
</g>
<g transform="matrix(2.9988 .040335 -.040323 2.9997 198.82 49.682)" display="block">
<g transform="translate(21.38 4.318)">
<path d="m6.164-0.59s-2.448 3.53-5.852 3.855c-3.404 0.326-6.476-2.675-6.476-2.675s2.448-3.53 5.852-3.856c3.404-0.325 6.476 2.676 6.476 2.676z" fill="#fff"/>
</g>
<g transform="translate(22.853 3.782)">
<path d="m3.355-0.321c0.177 1.853-1.182 3.498-3.035 3.676-1.852 0.177-3.497-1.181-3.674-3.034-0.177-1.853 1.18-3.498 3.032-3.676 1.853-0.177 3.5 1.181 3.677 3.034z" fill="#2a2a2a"/>
</g>
</g>
<g transform="matrix(2.9986 .05239 -.052373 2.9995 134.65 58.078)" display="block">
<g transform="translate(13.178 14.723)">
<path d="m6.407-14.473c-19.335 10.037-19.284 18.05-15.213 23.498 4.071 5.448 14.046 2.811 17.258-2.911 4.476-7.973-2.045-20.587-2.045-20.587z" fill="#2a2a2a"/>
</g>
</g>
</g>
</svg>
