<?xml version="1.0" encoding="UTF-8"?>
<svg style="content-visibility:visible;height:100%;width:100%" viewBox="0 0 350 350" xmlns="http://www.w3.org/2000/svg">
<defs>
<clipPath id="a">
<rect width="350" height="350"/>
</clipPath>
</defs>
<g clip-path="url(#a)">
<g transform="matrix(3 0 0 3 17.363 166.79)" display="block">
<g transform="translate(25.274 27.869)">
<path d="m24.85-27.62s-22.235 10.765-25.448 18.248c-3.213 7.482-10.091 23.137-20.534 27.229-3.718 1.457 28.855 9.763 28.855 9.763l17.127-55.24z" fill="#b66d48"/>
</g>
<g transform="translate(79.79 27.869)">
<path d="m-24.85-27.62s22.235 10.765 25.448 18.248c3.213 7.482 10.091 23.137 20.534 27.229 3.718 1.457-28.855 9.763-28.855 9.763l-17.127-55.24z" fill="#b66d48"/>
</g>
<g transform="translate(55.021 23.666)">
<path d="m29.206 2.427c4.079 9.12-16.686 19.229-32.983 19.229-16.296 0-29.508-8.099-29.508-18.09 0-9.99 14.938-25.222 31.234-25.222 16.296 0 20.529 0.096001 31.257 24.083z" fill="#e99457"/>
</g>
<g transform="translate(82.136 46.183)">
<path d="m0.223 0.148-0.446-0.296" fill-opacity="0" stroke="#000" stroke-miterlimit="10" stroke-width=".465"/>
</g>
<g transform="translate(53.233 19.386)">
<path d="m21.56-11.347c0.738 3.139 1.554 5.837 3.24 9.717 4.508 10.372-11.578 17.377-22.861 17.377-18.323 0-31.247-16.056-25.272-23.023 3.203-3.734 5.218-6.216 6.435-8.471" fill="#e69156"/>
</g>
<g transform="translate(52.533 49.936)">
<path d="m0 10.807c20.384 0 36.908-4.839 36.908-10.808 0-5.969-16.524-10.806-36.908-10.806s-36.908 4.837-36.908 10.806c0 5.969 16.524 10.808 36.908 10.808z" fill="#ad3e34"/>
</g>
<g transform="translate(16.544 47.276)">
<path d="m3.6 4.271s0.049-8.542 0.049-8.542-5.739 0.761-5.739 0.761-1.559 5.942-1.559 5.942l7.249 1.839z" fill="#b66d48"/>
</g>
<g transform="translate(10.206 51.476)">
<path d="m9.956 0.563c0 3.687-0.336 6.677-9.956 6.677-9.956 0-9.956-2.99-9.956-6.677 0-3.687 3.048-7.538 9.338-7.656 7.832-0.147 10.574 3.969 10.574 7.656z" fill="#e99457"/>
</g>
<g transform="translate(88.52 47.276)">
<path d="m-3.6 4.271s-0.049-8.542-0.049-8.542 5.739 0.761 5.739 0.761 1.559 5.942 1.559 5.942l-7.249 1.839z" fill="#b66d48"/>
</g>
<g transform="translate(94.857 51.476)">
<path d="m-9.956 0.563c0 3.687 0.336 6.677 9.956 6.677 9.956 0 9.956-2.99 9.956-6.677 0-3.687-3.048-7.538-9.338-7.656-7.832-0.147-10.574 3.969-10.574 7.656z" fill="#e99457"/>
</g>
<g transform="translate(5.422 54.702)">
<path d="m-1.206-2.973c-0.079 1.077-0.123 2.163 0 3.239 0.065 0.57 0.17 1.128 0.306 1.685 0.133 0.548 0.254 1.14 0.66 1.557 0.328 0.337 0.902 0.329 1.232 0 0.337-0.338 0.329-0.895 0-1.233 0.04 0.07 0.035 0.06-0.015-0.03 0.028 0.061 0.031 0.063 0.011 6e-3 -0.036-0.111-0.066-0.222-0.097-0.334-0.059-0.214-0.111-0.429-0.161-0.644-0.109-0.462-0.188-0.895-0.225-1.337-0.081-0.968-0.039-1.941 0.031-2.909 0.034-0.47-0.425-0.871-0.871-0.871-0.5 0-0.837 0.4-0.871 0.871z" fill="#2a2a2a"/>
</g>
<g transform="translate(13.147 54.085)">
<path d="m-1.29-2.623c0.069 0.972 0.153 1.942 0.297 2.907 0.134 0.907 0.261 1.84 0.622 2.686 0.179 0.421 0.83 0.546 1.191 0.313 0.438-0.282 0.505-0.742 0.313-1.192 0.049 0.115-0.042-0.146-0.051-0.176-0.031-0.103-0.056-0.207-0.08-0.311-0.04-0.181-0.071-0.363-0.102-0.546-0.07-0.412-0.152-0.823-0.213-1.237-0.03-0.202-0.034-0.231-0.06-0.459-0.027-0.23-0.051-0.461-0.072-0.692-0.04-0.43-0.072-0.862-0.103-1.293-0.032-0.454-0.377-0.893-0.871-0.871-0.444 0.02-0.906 0.384-0.871 0.871z" fill="#2a2a2a"/>
</g>
<g transform="translate(91.439 53.817)">
<path d="m-0.586-2.977c0.01 1.999-0.332 3.971-0.533 5.954-0.048 0.468 0.434 0.871 0.871 0.871 0.511 0 0.823-0.401 0.871-0.871 0.201-1.983 0.544-3.955 0.533-5.954-2e-3 -0.471-0.398-0.871-0.871-0.871-0.47 0-0.873 0.399-0.871 0.871z" fill="#2a2a2a"/>
</g>
<g transform="translate(98.491 53.044)">
<path d="m-0.618-2.648c3e-3 0.865 0.015 1.73-0.032 2.594-0.012 0.212-0.027 0.423-0.047 0.634-0.0089999 0.098-0.019 0.195-0.03 0.292-7e-3 0.065-0.015 0.129-0.023 0.194 6e-3 -0.055 6e-3 -0.051-3e-3 0.01-0.066 0.435-0.158 0.864-0.278 1.287-0.125 0.438 0.152 0.968 0.608 1.072 0.464 0.105 0.938-0.14 1.072-0.609 0.507-1.779 0.482-3.641 0.475-5.474-2e-3 -0.456-0.399-0.892-0.871-0.871-0.47 0.021-0.873 0.383-0.871 0.871z" fill="#2a2a2a"/>
</g>
</g>
<g transform="matrix(3 0 0 3 118.77 27.424)" display="block">
<g transform="translate(20.938 59.662)">
<path d="m20.688 0c0 11.426-9.262 20.688-20.688 20.688s-20.688-9.262-20.688-20.688 9.262-20.688 20.688-20.688 20.688 9.262 20.688 20.688z" fill="#e99457"/>
</g>
<g transform="translate(25.569 23.846)">
<path d="m23.596 0c0 13.032-10.564 23.596-23.596 23.596-13.031 0-23.596-10.564-23.596-23.596s10.565-23.596 23.596-23.596c13.032 0 23.596 10.564 23.596 23.596z" fill="#e99457"/>
</g>
<g transform="translate(22.116 40.61)">
<path d="m20.008 0.13c-2.059 1.999-3.174 4.373-2.427 7.822 0.498 2.301 0.885 4.185 1.295 5.933 0 0-38.459-4.4-38.459-4.4 1.226-2.273 1.642-4.314 1.642-7.174 0-4.263-1.298-10.118-2.067-16.196l40.016 14.015z" fill="#e99457"/>
</g>
</g>
<g transform="matrix(3 0 0 3 77.195 239.11)" display="block">
<g transform="translate(32.59 16.476)">
<path d="m0-16.227c-17.863 0-32.34 4.237-32.34 9.472v13.508c0 5.23 14.477 9.474 32.34 9.474s32.34-4.238 32.34-9.474v-13.508c0-5.235-14.477-9.472-32.34-9.472z" fill="#ee6947"/>
</g>
<g transform="translate(32.59 10.443)">
<path d="m-1e-3 8.456c15.952 0 28.884-3.786 28.884-8.456s-12.932-8.456-28.884-8.456c-15.952 0-28.882 3.786-28.882 8.456s12.93 8.456 28.882 8.456z" fill="#ad3e34"/>
</g>
<g transform="translate(32.957 22.758)">
<path d="m-0.499-3.897c-9.461 0-15.912-1.231-15.703-1.374 0.398-0.71 0.986-1.228 1.819-1.395 2.801-0.562 4.048-2.376 5.696-3.114 2.783-1.241 5.03-1.111 8.688-1.111 2.901 0 4.359 2.162 6.888 2.162 2.949 0 5.295 1.726 6.778 2.949 0.293 0.241 0.552 0.496 0.827 0.706 0.137 0.07-5.533 1.177-14.993 1.177z" fill="#ffcbb4"/>
</g>
<g>
<g transform="translate(29.16 11.814)">
<path d="m2.184-0.361c0.555-1.572-3.179-1.264-4.922 1.33 0 0 4.106 0.963 4.922-1.33z" fill="#bcf29b"/>
</g>
<g transform="translate(32.156 12.816)">
<path d="m1.385-1.108c-0.408-1.613-3.344 0.703-3.362 3.829 0 0 3.953-1.471 3.362-3.829z" fill="#bcf29b"/>
</g>
<g transform="translate(33.507 11.569)">
<path d="m3.002-0.277s0.2 0.097 0.2 0.097c0.2 0.095 0.2 0.095 0.2 0.095l-9.9993e-4 2e-3s-3e-3 6e-3 -3e-3 6e-3c-0.0020001 4e-3 -0.0050001 9e-3 -0.0079999 0.015-0.0070002 0.013-0.017 0.032-0.03 0.054-0.027 0.043-0.065 0.102-0.118 0.168-0.104 0.132-0.267 0.296-0.499 0.421-0.48 0.259-1.191 0.319-2.165-0.259-0.905-0.536-1.553-0.736-2.095-0.756-0.541-0.021-1.003 0.137-1.545 0.373-0.112 0.049-0.243-3e-3 -0.291-0.115-0.049-0.112 0.0019999-0.242 0.114-0.291 0.557-0.243 1.094-0.433 1.738-0.409 0.643 0.024 1.365 0.26 2.305 0.817 0.869 0.516 1.413 0.421 1.728 0.25 0.166-0.09 0.285-0.21 0.364-0.308 0.038-0.049 0.066-0.09 0.084-0.119 0.0090001-0.015 0.015-0.027 0.018-0.034l0.0040002-7e-3z" fill="#bcf29b"/>
</g>
</g>
</g>
<g transform="matrix(2.9864 .28563 -.28563 2.9864 205.85 28.426)" display="block">
<g transform="translate(18.096 19.119)">
<path d="m-10.692-18.869c27.539 11.022 28.539 21.887 23.749 29.812-4.79 7.926-18.659 5.683-23.774-1.642-7.129-10.207 0.025-28.17 0.025-28.17z" fill="#252525"/>
</g>
</g>
<g transform="matrix(2.9999 .018933 -.018933 2.9999 119.6 19.966)" display="block">
<g transform="translate(26.048 21.658)">
<path d="m-24.049 7.393c-1.749-13.825-0.77-28.801 24.404-28.801 13.338 0 25.444 13.817 25.444 27.774 0 8.31-1.573 9.103-7.024 12.817-1.045 0.712-2.001 1.44-2.81 2.225" fill="#e99457"/>
</g>
<g transform="translate(25.459 26.172)">
<path d="m23.596 0c0 13.032-10.564 23.596-23.596 23.596-13.031 0-23.596-10.564-23.596-23.596s10.565-23.596 23.596-23.596c13.032 0 23.596 10.564 23.596 23.596z" fill="#e99457"/>
</g>
</g>
<g transform="matrix(2.9999 .018933 -.018933 2.9999 164.72 54.319)" display="block">
<g transform="translate(23.023 18.658)">
<path d="m11.355 8.982c11.419-6.581 11.074-27.39 0.2-25.289l-22.642 2.978 0.0050001 0.024c-9.167 2.286-11.692 14.024-3.705 25.375 1.694 2.407 4.459 6.338 12.575 3.464 3.529-1.25 7.944-3.312 13.567-6.552z" fill="#e99457"/>
</g>
<g transform="translate(15.574 20.093)">
<path d="m-15.051 0c0 8.313 6.738 15.051 15.05 15.051 8.313 0 15.052-6.738 15.052-15.051s-6.739-15.051-15.052-15.051c-8.312 0-15.05 6.738-15.05 15.051z" fill="#e99457"/>
</g>
<g transform="translate(21.843 34.535)">
<path d="m2.793-1.181s-1.872 1.498-5.586 2.362" fill-opacity="0" stroke="#252525" stroke-linecap="round" stroke-miterlimit="10" stroke-width="2.232"/>
</g>
</g>
<g transform="matrix(2.9999 .018933 -.018933 2.9999 246.31 61.542)" display="block">
<g transform="translate(7.268 6.132)">
<path d="m2.387 4.798-2.815 0.544c-2.8 0.541-5.508-1.291-6.049-4.091-0.541-2.8 1.29-5.508 4.09-6.049l2.815-0.544c2.8-0.541 5.508 1.291 6.049 4.091 0.541 2.8-1.29 5.508-4.09 6.049z" fill="#252525"/>
</g>
</g>
<g transform="matrix(2.9855 .29445 -.29445 2.9855 172.04 85.115)" display="block">
<g transform="translate(13.501 11.355)">
<path d="m-4.208-2.062c2.557 4.125 6.887 2.223 8.416 1.11" fill-opacity="0" stroke="#2a2a2a" stroke-linecap="round" stroke-miterlimit="10" stroke-width="3.717"/>
</g>
</g>
<g transform="matrix(2.9999 .018933 -.018933 2.9999 133.45 89.582)" display="block">
<g transform="translate(7.531 7.532)">
<path d="m6.579-1.271c0.702 3.634-1.674 7.147-5.308 7.85-3.634 0.702-7.148-1.674-7.85-5.308-0.702-3.633 1.675-7.148 5.308-7.85 3.634-0.702 7.148 1.674 7.85 5.308z" fill="#e15d59"/>
</g>
</g>
<g transform="matrix(2.9897 -.24792 .24792 2.9897 48.699 75.209)" display="block">
<g transform="translate(17.938 20.511)">
<path d="m7.433-20.262c-25.12 15.776-24.158 26.645-18.026 33.584 6.132 6.94 19.375 2.25 23.096-5.873 5.185-11.319-5.07-27.711-5.07-27.711z" fill="#252525"/>
</g>
</g>
<g transform="matrix(2.9999 .018933 -.018933 2.9999 135.49 34.256)" display="block">
<g transform="translate(25.915 5.844)">
<path d="m8.788-1.698s-3.035 5.416-7.888 6.354c-4.853 0.938-9.688-2.958-9.688-2.958s3.034-5.416 7.888-6.354c4.853-0.938 9.688 2.958 9.688 2.958z" fill="#fff"/>
</g>
<g transform="translate(24.941 6.131)">
<path d="m4.783-0.924c0.51 2.642-1.217 5.197-3.859 5.707-2.641 0.51-5.197-1.217-5.707-3.859-0.51-2.641 1.217-5.196 3.859-5.707 2.641-0.51 5.197 1.217 5.707 3.859z" fill="#2a2a2a"/>
</g>
<g transform="translate(9.038 13.63)">
<path d="m8.788-1.698s-3.035 5.416-7.888 6.354c-4.853 0.938-9.688-2.958-9.688-2.958s3.034-5.416 7.888-6.354c4.853-0.938 9.688 2.958 9.688 2.958z" fill="#fff"/>
</g>
<g transform="translate(8.064 13.917)">
<path d="m4.783-0.924c0.51 2.642-1.217 5.197-3.859 5.707-2.641 0.51-5.196-1.217-5.707-3.859-0.51-2.641 1.217-5.196 3.859-5.707 2.641-0.51 5.197 1.217 5.707 3.859z" fill="#2a2a2a"/>
</g>
</g>
<g transform="matrix(2.9999 .018933 -.018933 2.9999 174.49 2.9408)" display="block">
<g transform="translate(10.431 8.407)">
<path d="m5.786 1.085c-7.2647-4.8049-7.5092 1.0054-11.567 2.6827" fill-opacity="0" stroke="#cb6e3b" stroke-linecap="round" stroke-miterlimit="10" stroke-width="1.858"/>
</g>
</g>
<g transform="matrix(3 0 0 3 145.84 159.22)" display="block">
<g>
<path d="m-3.562-24.042s-2.6465 13.572 8.5105 21.542c15.059 10.758-9.2955 28.385-25.135 26.187" fill-opacity="0" stroke="#b0b0b0" stroke-linecap="round" stroke-miterlimit="10" stroke-width="1.858"/>
</g>
</g>
<g transform="matrix(3 0 0 3 74.293 28.616)" display="block">
<g transform="translate(29.408 16.611)">
<path d="m-9.695 1.873c-1.036-5.364 2.465-10.552 7.819-11.586 5.354-1.035 10.534 2.475 11.571 7.84 1.036 5.364-2.464 10.552-7.818 11.586-5.354 1.035-10.536-2.476-11.572-7.84z" fill-opacity="0" stroke="#2a2a2a" stroke-linecap="round" stroke-miterlimit="10" stroke-width="2.345"/>
</g>
</g>
</g>
</svg>
