<?xml version="1.0" encoding="UTF-8"?>
<svg style="content-visibility:visible;height:100%;width:100%" viewBox="0 0 350 350" xmlns="http://www.w3.org/2000/svg">
<defs>
<clipPath id="c">
<rect width="350" height="350"/>
</clipPath>
<mask id="b" mask-type="alpha">
<use href="#__lottie_element_405"/>
</mask>
<mask id="a" mask-type="alpha">
<use href="#__lottie_element_406"/>
</mask>
</defs>
<g clip-path="url(#c)">
<g transform="matrix(3 0 0 3 16.881 166.85)" display="block">
<g transform="translate(25.274 27.869)">
<path d="m24.85-27.62s-22.235 10.765-25.448 18.248c-3.213 7.482-10.091 23.137-20.534 27.229-3.718 1.457 28.855 9.763 28.855 9.763l17.127-55.24z" fill="#b66d48"/>
</g>
<g transform="translate(79.79 27.869)">
<path d="m-24.85-27.62s22.235 10.765 25.448 18.248c3.213 7.482 10.091 23.137 20.534 27.229 3.718 1.457-28.855 9.763-28.855 9.763l-17.127-55.24z" fill="#b66d48"/>
</g>
<g transform="translate(55.021 23.666)">
<path d="m29.206 2.427c4.079 9.12-16.686 19.229-32.983 19.229-16.296 0-29.508-8.099-29.508-18.09 0-9.99 14.938-25.222 31.234-25.222 16.296 0 20.529 0.096001 31.257 24.083z" fill="#e99457"/>
</g>
<g transform="translate(82.136 46.183)">
<path d="m0.223 0.148-0.446-0.296" fill-opacity="0" stroke="#000" stroke-miterlimit="10" stroke-width=".465"/>
</g>
<g transform="translate(53.233 19.386)">
<path d="m21.56-11.347c0.738 3.139 1.554 5.837 3.24 9.717 4.508 10.372-11.578 17.377-22.861 17.377-18.323 0-31.247-16.056-25.272-23.023 3.203-3.734 5.218-6.216 6.435-8.471" fill="#e99457"/>
</g>
<g transform="translate(52.533 49.936)">
<path d="m0 10.807c20.384 0 36.908-4.839 36.908-10.808 0-5.969-16.524-10.806-36.908-10.806s-36.908 4.837-36.908 10.806c0 5.969 16.524 10.808 36.908 10.808z" fill="#ad3e34"/>
</g>
<g transform="translate(16.544 47.276)">
<path d="m3.6 4.271s0.049-8.542 0.049-8.542-5.739 0.761-5.739 0.761-1.559 5.942-1.559 5.942l7.249 1.839z" fill="#b66d48"/>
</g>
<g transform="translate(10.206 51.476)">
<path d="m9.956 0.563c0 3.687-0.336 6.677-9.956 6.677-9.956 0-9.956-2.99-9.956-6.677 0-3.687 3.048-7.538 9.338-7.656 7.832-0.147 10.574 3.969 10.574 7.656z" fill="#e99457"/>
</g>
<g transform="translate(88.52 47.276)">
<path d="m-3.6 4.271s-0.049-8.542-0.049-8.542 5.739 0.761 5.739 0.761 1.559 5.942 1.559 5.942l-7.249 1.839z" fill="#b66d48"/>
</g>
<g transform="translate(94.857 51.476)">
<path d="m-9.956 0.563c0 3.687 0.336 6.677 9.956 6.677 9.956 0 9.956-2.99 9.956-6.677 0-3.687-3.048-7.538-9.338-7.656-7.832-0.147-10.574 3.969-10.574 7.656z" fill="#e99457"/>
</g>
<g transform="translate(5.422 54.702)">
<path d="m-1.206-2.973c-0.079 1.077-0.123 2.163 0 3.239 0.065 0.57 0.17 1.128 0.306 1.685 0.133 0.548 0.254 1.14 0.66 1.557 0.328 0.337 0.902 0.329 1.232 0 0.337-0.338 0.329-0.895 0-1.233 0.04 0.07 0.035 0.06-0.015-0.03 0.028 0.061 0.031 0.063 0.011 6e-3 -0.036-0.111-0.066-0.222-0.097-0.334-0.059-0.214-0.111-0.429-0.161-0.644-0.109-0.462-0.188-0.895-0.225-1.337-0.081-0.968-0.039-1.941 0.031-2.909 0.034-0.47-0.425-0.871-0.871-0.871-0.5 0-0.837 0.4-0.871 0.871z" fill="#2a2a2a"/>
</g>
<g transform="translate(13.147 54.085)">
<path d="m-1.29-2.623c0.069 0.972 0.153 1.942 0.297 2.907 0.134 0.907 0.261 1.84 0.622 2.686 0.179 0.421 0.83 0.546 1.191 0.313 0.438-0.282 0.505-0.742 0.313-1.192 0.049 0.115-0.042-0.146-0.051-0.176-0.031-0.103-0.056-0.207-0.08-0.311-0.04-0.181-0.071-0.363-0.102-0.546-0.07-0.412-0.152-0.823-0.213-1.237-0.03-0.202-0.034-0.231-0.06-0.459-0.027-0.23-0.051-0.461-0.072-0.692-0.04-0.43-0.072-0.862-0.103-1.293-0.032-0.454-0.377-0.893-0.871-0.871-0.444 0.02-0.906 0.384-0.871 0.871z" fill="#2a2a2a"/>
</g>
<g transform="translate(91.439 53.817)">
<path d="m-0.586-2.977c0.01 1.999-0.332 3.971-0.533 5.954-0.048 0.468 0.434 0.871 0.871 0.871 0.511 0 0.823-0.401 0.871-0.871 0.201-1.983 0.544-3.955 0.533-5.954-2e-3 -0.471-0.398-0.871-0.871-0.871-0.47 0-0.873 0.399-0.871 0.871z" fill="#2a2a2a"/>
</g>
<g transform="translate(98.491 53.044)">
<path d="m-0.618-2.648c3e-3 0.865 0.015 1.73-0.032 2.594-0.012 0.212-0.027 0.423-0.047 0.634-0.0089999 0.098-0.019 0.195-0.03 0.292-7e-3 0.065-0.015 0.129-0.023 0.194 6e-3 -0.055 6e-3 -0.051-3e-3 0.01-0.066 0.435-0.158 0.864-0.278 1.287-0.125 0.438 0.152 0.968 0.608 1.072 0.464 0.105 0.938-0.14 1.072-0.609 0.507-1.779 0.482-3.641 0.475-5.474-2e-3 -0.456-0.399-0.892-0.871-0.871-0.47 0.021-0.873 0.383-0.871 0.871z" fill="#2a2a2a"/>
</g>
</g>
<g transform="matrix(3 -.0048685 .0048685 3 118 27.587)" display="block">
<g transform="translate(20.938 59.662)">
<path d="m20.688 0c0 11.426-9.262 20.688-20.688 20.688s-20.688-9.262-20.688-20.688 9.262-20.688 20.688-20.688 20.688 9.262 20.688 20.688z" fill="#e99457"/>
</g>
<g transform="translate(25.569 23.846)">
<path d="m23.596 0c0 13.032-10.564 23.596-23.596 23.596-13.031 0-23.596-10.564-23.596-23.596s10.565-23.596 23.596-23.596c13.032 0 23.596 10.564 23.596 23.596z" fill="#e99457"/>
</g>
<g transform="translate(22.116 40.61)">
<path d="m20.008 0.13c-2.059 1.999-3.174 4.373-2.427 7.822 0.498 2.301 0.885 4.185 1.295 5.933 0 0-38.459-4.4-38.459-4.4 1.226-2.273 1.642-4.314 1.642-7.174 0-4.263-1.298-10.118-2.067-16.196l40.016 14.015z" fill="#e99457"/>
</g>
</g>
<g transform="matrix(3 0 0 3 76.71 239.17)" display="block">
<g transform="translate(32.59 16.476)">
<path d="m0-16.227c-17.863 0-32.34 4.237-32.34 9.472v13.508c0 5.23 14.477 9.474 32.34 9.474s32.34-4.238 32.34-9.474v-13.508c0-5.235-14.477-9.472-32.34-9.472z" fill="#ee6947"/>
</g>
<g transform="translate(32.59 10.443)">
<path d="m-1e-3 8.456c15.952 0 28.884-3.786 28.884-8.456s-12.932-8.456-28.884-8.456c-15.952 0-28.882 3.786-28.882 8.456s12.93 8.456 28.882 8.456z" fill="#ad3e34"/>
</g>
<g transform="translate(32.922 18.568)">
<path d="m-0.455 0.313c-13.91 0.019-23.384-3.103-23.197-3.502 0.404-0.383 0.795-0.849 1.254-1.34 1.105-1.188 1.465-3.741 3.15-4.692 2.351-1.33 5.82-1.058 9.017-1.791 3.049-0.697 4.496-2.842 8.03-2.842 1.738 0 6.264 1.861 7.906 2.039 3.764 0.407 7.056-0.514 10.004 0.679 2.949 1.194 6.506 2.919 8.214 4.568 0.684 0.661 1.053 1.419 1.207 2.233 0.197 1.044-10.802 4.628-25.585 4.648z" fill="#ffcbb4"/>
</g>
</g>
<g transform="matrix(3 -.0060443 .0060443 3 217.31 42.406)" display="block">
<g transform="translate(19.119 21.427)">
<path d="m-10.997-21.178c27.073 12.122 29.866 26.904 24.761 34.63-5.106 7.726-21.105 1.042-25.921-6.483-6.712-10.486 1.16-28.147 1.16-28.147z" fill="#252525"/>
</g>
</g>
<g transform="matrix(3 -.0048685 .0048685 3 118.33 27.587)" display="block">
<g transform="translate(26.048 20.51)">
<path d="m-24.049 6.215c-1.749-13.825-0.526-26.445 24.647-26.445 13.338 0 25.201 11.461 25.201 25.418 0 8.31-1.573 9.103-7.024 12.817-1.045 0.712-2.001 1.44-2.81 2.225" fill="#e99457"/>
</g>
<g transform="translate(25.459 23.846)">
<path d="m23.596 0c0 13.032-10.564 23.596-23.596 23.596-13.031 0-23.596-10.564-23.596-23.596s10.565-23.596 23.596-23.596c13.032 0 23.596 10.564 23.596 23.596z" fill="#e99457"/>
</g>
</g>
<g transform="matrix(3 -.008977 .008977 3 131.97 75.632)" display="block">
<g transform="translate(29.174 18.641)">
<path d="m6.908 18.16c13.178 0.231 22.017-16.238 11.925-23.006-9.836-6.597-20.006-10.812-20.006-10.812l-7e-3 0.024c-9.038-2.756-27.744 10.261-19.55 22.176 2.393 3.479 6.225 11.242 27.638 11.618z" fill="#e99457"/>
</g>
<g transform="translate(32.619 37.034)">
<path d="m3.025-0.038s-2.345 0.491-6.05-0.416" fill-opacity="0" stroke="#252525" stroke-linecap="round" stroke-miterlimit="10" stroke-width="2.232"/>
</g>
</g>
<g transform="matrix(3 -.008977 .008977 3 240.66 121.93)" display="block">
<g transform="translate(6.999 5.65)">
<path d="m1.136 5.237-2.863-0.164c-2.847-0.163-5.022-2.603-4.859-5.45 0.163-2.847 2.603-5.023 5.45-4.859l2.863 0.164c2.847 0.163 5.022 2.603 4.859 5.45-0.163 2.847-2.603 5.022-5.45 4.859z" fill="#252525"/>
</g>
</g>
<g transform="matrix(3 -.008977 .008977 3 178.19 121.94)" display="block">
<g transform="translate(12.41 11.201)">
<path d="m4.928 3.195c-2.751 0.524-8.548-1.338-9.856-6.914" fill-opacity="0" stroke="#2a2a2a" stroke-linecap="round" stroke-miterlimit="10" stroke-width="2.993"/>
</g>
</g>
<g transform="matrix(4.0569 1.9471 -1.9471 4.0569 126.07 49.56)" display="block">
<g transform="translate(27.026 15.618)">
<path d="m-0.2745 4.4155c-1.6109-0.096118-2.5652-1.5786-2.4924-3.199 0.072738-0.82003-0.16106-3.2945-0.16106-3.2945 0-2.173 2.33 1.899 5.405 0.682 0.221-0.087 0.451 0.123 0.451 0.36l-0.11084 2.708c-0.096118 1.6109-1.4807 2.8397-3.0917 2.7436z" fill="#f93e26"/>
</g>
</g>
<g transform="matrix(3 -.0048685 .0048685 3 130.4 89.472)" display="block">
<g transform="translate(7.813 7.813)">
<path d="m6.296 2.294c-1.267 3.477-5.113 5.27-8.591 4.002-3.477-1.267-5.268-5.114-4.001-8.591 1.268-3.477 5.114-5.269 8.591-4.002 3.477 1.268 5.268 5.114 4.001 8.591z" fill="#e15d59"/>
</g>
</g>
<g transform="matrix(2.9889 .25779 -.25779 2.9889 45.624 38.588)" display="block">
<g transform="translate(18.197 22.131)">
<path d="m11.993-21.881c-26.714 12.894-29.94 28.607-24.615 36.184 5.324 7.577 19.561 4.093 24.16-3.567 6.408-10.674 0.455-32.617 0.455-32.617z" fill="#252525"/>
</g>
</g>
<use href="#__lottie_element_406"/>
<g display="block" mask="url(#a)">
<g transform="matrix(4.7955 .20666 -.20666 4.7955 147.1 74.535)">
<g>
<path d="m9.12 3.85c-0.07 1.88-1.65 3.35-3.53 3.28s-3.34-1.65-3.27-3.53c0.06-1.87 1.64-3.34 3.52-3.27s3.35 1.64 3.28 3.52z" fill="#2a2a2a"/>
<g transform="translate(5.716 3.728)">
<path d="m3.4 0.124c-0.069 1.878-1.646 3.344-3.524 3.276-1.878-0.069-3.345-1.647-3.276-3.524 0.069-1.878 1.646-3.345 3.524-3.276 1.878 0.068 3.345 1.646 3.276 3.524z" fill="#2a2a2a"/>
</g>
</g>
</g>
</g>
<g transform="matrix(4.7955 .20666 -.20666 4.7955 147.1 74.535)" display="block">
<g transform="translate(6.497 3.686)">
<path d="m6.247 0.228s-2.918 3.208-6.368 3.081c-3.45-0.126-6.126-3.537-6.126-3.537s2.918-3.208 6.368-3.082c3.45 0.126 6.126 3.538 6.126 3.538z" fill="#fff"/>
</g>
<g>
<g transform="translate(5.716 3.728)">
<path d="m3.4 0.124c-0.069 1.878-1.646 3.344-3.524 3.276-1.878-0.069-3.345-1.647-3.276-3.524 0.069-1.878 1.646-3.345 3.524-3.276 1.878 0.068 3.345 1.646 3.276 3.524z" fill="#2a2a2a"/>
</g>
</g>
</g>
<g transform="matrix(4.7955 .20666 -.20666 4.7955 147.1 74.535)" display="block">
<g transform="translate(6.497 3.686)" opacity="0">
<path d="m-4.458-0.228s1.831 1.661 4.295 1.787c2.464 0.126 4.63-1.331 4.63-1.331" fill-opacity="0" stroke="#2a2a2a" stroke-linecap="round" stroke-width="2"/>
</g>
</g>
<use href="#__lottie_element_405"/>
<g display="block" mask="url(#b)">
<g transform="matrix(4.7955 .20666 -.20666 4.7955 207.89 67.448)">
<g>
<path d="m9.12 3.85c-0.07 1.88-1.65 3.35-3.53 3.28s-3.34-1.65-3.27-3.53c0.06-1.87 1.64-3.34 3.52-3.27s3.35 1.64 3.28 3.52z" fill="#2a2a2a"/>
<g transform="translate(5.716 3.728)">
<path d="m3.4 0.124c-0.069 1.878-1.646 3.344-3.524 3.276-1.878-0.069-3.345-1.647-3.276-3.524 0.069-1.878 1.646-3.345 3.524-3.276 1.878 0.068 3.345 1.646 3.276 3.524z" fill="#2a2a2a"/>
</g>
</g>
</g>
</g>
<g transform="matrix(4.7955 .20666 -.20666 4.7955 207.89 67.448)" display="block">
<g transform="translate(6.497 3.686)">
<path d="m6.247 0.228s-2.918 3.208-6.368 3.081c-3.45-0.126-6.126-3.537-6.126-3.537s2.918-3.208 6.368-3.082c3.45 0.126 6.126 3.538 6.126 3.538z" fill="#fff"/>
</g>
<g>
<g transform="translate(5.716 3.728)">
<path d="m3.4 0.124c-0.069 1.878-1.646 3.344-3.524 3.276-1.878-0.069-3.345-1.647-3.276-3.524 0.069-1.878 1.646-3.345 3.524-3.276 1.878 0.068 3.345 1.646 3.276 3.524z" fill="#2a2a2a"/>
</g>
</g>
</g>
<g transform="matrix(4.7955 .20666 -.20666 4.7955 207.89 67.448)" display="block">
<g transform="translate(6.497 3.686)" opacity="0">
<path d="m-4.458-0.228s1.831 1.661 4.295 1.787c2.464 0.126 4.63-1.331 4.63-1.331" fill-opacity="0" stroke="#2a2a2a" stroke-linecap="round" stroke-width="2"/>
</g>
</g>
</g>
</svg>
