<?xml version="1.0" encoding="UTF-8"?>
<svg style="content-visibility:visible;height:100%;width:100%" viewBox="0 0 350 350" xmlns="http://www.w3.org/2000/svg">
<defs>
<clipPath id="b">
<rect width="350" height="350"/>
</clipPath>
<filter id="a" x="0%" y="0%" width="100%" height="100%">
<feGaussianBlur in="SourceAlpha" result="filter_result_0_drop_shadow_1" stdDeviation="1.75"/>
<feOffset dx="-1.1471528727020923" dy="1.6383040885779834" in="filter_result_0_drop_shadow_1" result="filter_result_0_drop_shadow_2"/>
<feFlood flood-color="#000000" flood-opacity=".15" result="filter_result_0_drop_shadow_3"/>
<feComposite in="filter_result_0_drop_shadow_3" in2="filter_result_0_drop_shadow_2" operator="in" result="filter_result_0_drop_shadow_4"/>
<feMerge result="filter_result_0">
<feMergeNode in="filter_result_0_drop_shadow_4"/>
<feMergeNode in="SourceGraphic"/>
</feMerge>
</filter>
</defs>
<g clip-path="url(#b)">
<g transform="matrix(3 0 0 3 16.383 162.45)" display="block" filter="url(#a)">
<g transform="translate(29.3 8.44)">
<path d="m4.338 1.804c0.952-1.428-0.997-9.081-6.014-4.633-3.614 3.205 2.364 10.106 6.014 4.633z" fill="#fff"/>
</g>
<g transform="translate(29.3 8.44)">
<path d="m4.338 1.804c0.952-1.428-0.997-9.081-6.014-4.633-3.614 3.205 2.364 10.106 6.014 4.633z" fill-opacity="0" stroke="#b2b2b2" stroke-miterlimit="10" stroke-width=".465"/>
</g>
<g transform="translate(23.651 13.712)">
<path d="m-8.335 6.816c-0.078 0.114 2.538-5.668 3.905-7.926 3.522-5.82 5.679-4.523 9.451-3.811 3.392 0.64 2.707 5.342-3.526 7.831-6.232 2.489-8.337 1.723-9.83 3.906z" fill="#ececec"/>
</g>
<g transform="translate(30.357 10.45)">
<path d="m-0.255-3.001s-2.149 1.171-2.127 3.586c0.023 2.416 4.051 1.083 4.419 0.565 0.367-0.518-1.078-0.564-1.777-2.076-0.7-1.513-0.515-2.075-0.515-2.075z" fill="#b2b2b2"/>
</g>
<g transform="translate(30.357 10.45)">
<path d="m-0.255-3.001s-2.149 1.171-2.127 3.586c0.023 2.416 4.051 1.083 4.419 0.565 0.367-0.518-1.078-0.564-1.777-2.076-0.7-1.513-0.515-2.075-0.515-2.075z" fill-opacity="0" stroke="#b2b2b2" stroke-miterlimit="10" stroke-width=".507"/>
</g>
<g transform="translate(31.361 6.345)">
<path d="m-2.688-1.52s3.602 0.309 1.764 2.193c0 0 2.843 1.97 3.227 1.245 0.384-0.726-0.437-2.932-1.49-3.438-1.052-0.506-2.119-1.123-3.501 0z" fill="#ececec"/>
</g>
</g>
<g transform="matrix(3 0 0 3 99.282 145.51)" display="block">
<g transform="translate(26.634 19.588)">
<path d="m-17.792 8.462s-7.679-6.997-4.341-13.158c3.338-6.162 47.604-5.158 47.179 3.115-0.424 8.273-15.558 12.439-15.558 12.439l-27.28-2.396z" fill="#b2b2b2"/>
</g>
<g transform="translate(26.634 19.588)">
<path d="m-17.792 8.462s-7.679-6.997-4.341-13.158c3.338-6.162 47.604-5.158 47.179 3.115-0.424 8.273-15.558 12.439-15.558 12.439l-27.28-2.396z" fill-opacity="0" stroke="#b2b2b2" stroke-miterlimit="10" stroke-width=".465"/>
</g>
<g transform="translate(9.006 8.872)">
<path d="m7.447-7.542c0.123-0.063-5.939 1.817-8.35 2.893-6.212 2.773-6.667 6.666-4.137 9.014 2.531 2.347 4.149 3.239 7.392-2.636 3.243-5.875 2.744-8.06 5.095-9.271z" fill="#b2b2b2"/>
</g>
<g transform="translate(9.006 8.872)">
<path d="m7.447-7.542c0.123-0.063-5.939 1.817-8.35 2.893-6.212 2.773-6.667 6.666-4.137 9.014 2.531 2.347 4.149 3.239 7.392-2.636 3.243-5.875 2.744-8.06 5.095-9.271z" fill-opacity="0" stroke="#b2b2b2" stroke-miterlimit="10" stroke-width=".507"/>
</g>
</g>
<g transform="matrix(2.9943 -.18553 .18553 2.9943 107.84 31.913)" display="block">
<g transform="translate(20.938 59.662)">
<path d="m20.688 0c0 11.426-9.262 20.688-20.688 20.688s-20.688-9.262-20.688-20.688 9.262-20.688 20.688-20.688 20.688 9.262 20.688 20.688z" fill="#e69156"/>
</g>
<g transform="translate(25.569 23.846)">
<path d="m23.596 0c0 13.032-10.564 23.596-23.596 23.596-13.031 0-23.596-10.564-23.596-23.596s10.565-23.596 23.596-23.596c13.032 0 23.596 10.564 23.596 23.596z" fill="#e69156"/>
</g>
<g transform="translate(22.116 40.61)">
<path d="m20.008 0.13c-2.059 1.999-3.174 4.373-2.427 7.822 0.498 2.301 0.885 4.185 1.295 5.933 0 0-38.459-4.4-38.459-4.4 1.226-2.273 1.642-4.314 1.642-7.174 0-4.263-1.298-10.118-2.067-16.196l40.016 14.015z" fill="#e69156"/>
</g>
</g>
<g transform="matrix(3 0 0 3 17.382 161.45)" display="block">
<g transform="translate(24.666 34.597)">
<path d="m24.242-22.758s-21.02 1.043-24.233 8.526c-3.214 7.482-10.09 23.137-20.533 27.229-3.718 1.457 28.855 9.761 28.855 9.761l15.911-45.516z" fill="#b66d48"/>
</g>
<g transform="translate(80.279 35.119)">
<path d="m-24.361-21.639s21.258-0.599 24.471 6.884c3.213 7.483 10.089 23.138 20.532 27.23 3.719 1.458-28.855 9.763-28.855 9.763s-16.148-43.877-16.148-43.877z" fill="#b66d48"/>
</g>
<g transform="translate(55.021 25.534)">
<path d="m29.206 2.427c4.079 9.12-16.686 19.229-32.983 19.229-16.296 0-29.508-8.099-29.508-18.09 0-9.99 14.938-25.222 31.234-25.222 16.296 0 20.529 0.096001 31.257 24.083z" fill="#e99457"/>
</g>
<g transform="translate(53.233 21.254)">
<path d="m21.56-11.347c0.738 3.139 1.554 5.837 3.24 9.717 4.508 10.372-11.578 17.377-22.861 17.377-18.323 0-31.247-16.056-25.272-23.023 3.203-3.734 5.218-6.216 6.435-8.471" fill="#e69156"/>
</g>
<g transform="translate(52.533 51.804)">
<path d="m0 10.807c20.384 0 36.908-4.839 36.908-10.808 0-5.969-16.524-10.806-36.908-10.806s-36.908 4.837-36.908 10.806c0 5.969 16.524 10.808 36.908 10.808z" fill="#ad3e34"/>
</g>
<g transform="translate(16.544 49.144)">
<path d="m3.6 4.271s0.049-8.542 0.049-8.542-5.739 0.761-5.739 0.761-1.559 5.942-1.559 5.942l7.249 1.839z" fill="#b66d48"/>
</g>
<g transform="translate(10.206 53.344)">
<path d="m9.956 0.563c0 3.687-0.336 6.677-9.956 6.677-9.956 0-9.956-2.99-9.956-6.677 0-3.687 3.048-7.538 9.338-7.656 7.832-0.147 10.574 3.969 10.574 7.656z" fill="#e99457"/>
</g>
<g transform="translate(88.52 49.144)">
<path d="m-3.6 4.271s-0.049-8.542-0.049-8.542 5.739 0.761 5.739 0.761 1.559 5.942 1.559 5.942l-7.249 1.839z" fill="#b66d48"/>
</g>
<g transform="translate(94.857 53.344)">
<path d="m-9.956 0.563c0 3.687 0.336 6.677 9.956 6.677 9.956 0 9.956-2.99 9.956-6.677 0-3.687-3.048-7.538-9.338-7.656-7.832-0.147-10.574 3.969-10.574 7.656z" fill="#e99457"/>
</g>
<g transform="translate(5.422 56.57)">
<path d="m-1.206-2.973c-0.079 1.077-0.123 2.163 0 3.239 0.065 0.57 0.17 1.128 0.306 1.685 0.133 0.548 0.254 1.14 0.66 1.557 0.328 0.337 0.902 0.329 1.232 0 0.337-0.338 0.329-0.895 0-1.233 0.04 0.07 0.035 0.06-0.015-0.03 0.028 0.061 0.031 0.063 0.011 6e-3 -0.036-0.111-0.066-0.222-0.097-0.334-0.059-0.214-0.111-0.429-0.161-0.644-0.109-0.462-0.188-0.895-0.225-1.337-0.081-0.968-0.039-1.941 0.031-2.909 0.034-0.47-0.425-0.871-0.871-0.871-0.5 0-0.837 0.4-0.871 0.871z" fill="#2a2a2a"/>
</g>
<g transform="translate(13.147 55.953)">
<path d="m-1.29-2.623c0.069 0.972 0.153 1.942 0.297 2.907 0.134 0.907 0.261 1.84 0.622 2.686 0.179 0.421 0.83 0.546 1.191 0.313 0.438-0.282 0.505-0.742 0.313-1.192 0.049 0.115-0.042-0.146-0.051-0.176-0.031-0.103-0.056-0.207-0.08-0.311-0.04-0.181-0.071-0.363-0.102-0.546-0.07-0.412-0.152-0.823-0.213-1.237-0.03-0.202-0.034-0.231-0.06-0.459-0.027-0.23-0.051-0.461-0.072-0.692-0.04-0.43-0.072-0.862-0.103-1.293-0.032-0.454-0.377-0.893-0.871-0.871-0.444 0.02-0.906 0.384-0.871 0.871z" fill="#2a2a2a"/>
</g>
<g transform="translate(91.439 55.685)">
<path d="m-0.586-2.977c0.01 1.999-0.332 3.971-0.533 5.954-0.048 0.468 0.434 0.871 0.871 0.871 0.511 0 0.823-0.401 0.871-0.871 0.201-1.983 0.544-3.955 0.533-5.954-2e-3 -0.471-0.398-0.871-0.871-0.871-0.47 0-0.873 0.399-0.871 0.871z" fill="#2a2a2a"/>
</g>
<g transform="translate(98.491 54.912)">
<path d="m-0.618-2.648c3e-3 0.865 0.015 1.73-0.032 2.594-0.012 0.212-0.027 0.423-0.047 0.634-0.0089999 0.098-0.019 0.195-0.03 0.292-7e-3 0.065-0.015 0.129-0.023 0.194 6e-3 -0.055 6e-3 -0.051-3e-3 0.01-0.066 0.435-0.158 0.864-0.278 1.287-0.125 0.438 0.152 0.968 0.608 1.072 0.464 0.105 0.938-0.14 1.072-0.609 0.507-1.779 0.482-3.641 0.475-5.474-2e-3 -0.456-0.399-0.892-0.871-0.871-0.47 0.021-0.873 0.383-0.871 0.871z" fill="#2a2a2a"/>
</g>
<g transform="translate(57.567 29.35)">
<path d="m-26.211-19.967s7.382 4.319 18.758 6.016c11.377 1.697 22.463 1.081 24.528 0 2.065-1.081 4.242-2.707 4.242-2.707s4.473 0.399 2.618 7.838c-2.286 9.16 11.521 15.052 9.431 21.92-2.091 6.868-42.594 6.54-50.23 5.601-7.637-0.94-18.592-1.803-18.592-1.803s5.009-13.879 5.649-18.97c0.64-5.091-1.962-7.718 3.596-17.895z" fill="#fff"/>
</g>
<g transform="translate(32.958 27.781)">
<path d="m1.064-17.026c-1.775 2.984-2.995 6.574-2.68 10.889 0.489 6.701-0.326 16.86-2.9 25.082" fill-opacity="0" stroke="#bdd2c6" stroke-miterlimit="10" stroke-width=".465"/>
</g>
<g transform="translate(39.655 27.968)">
<path d="m-0.106-15.088c-0.241 0.706-0.472 1.445-0.697 2.216-0.613 2.124-1.01 4.41-0.861 6.925 0.119 2.08 0.215 4.456 0.313 7.026 0.221 5.837-0.0090001 12.571-1.679 18.496" fill-opacity="0" stroke="#bdd2c6" stroke-miterlimit="10" stroke-width=".465"/>
</g>
<g transform="translate(46.353 28.155)">
<path d="m-0.662-13.499c-0.067 0.303-0.138 0.611-0.214 0.924-0.522 2.148-0.944 4.385-0.836 6.817 0.084 2.05 0.244 4.345 0.565 6.86 0.75 5.87 1.408 12.706-0.254 18.987" fill-opacity="0" stroke="#bdd2c6" stroke-miterlimit="10" stroke-width=".465"/>
</g>
<g transform="translate(53.272 28.342)">
<path d="m-1.11-12.614c-0.019 0.112-0.04 0.224-0.062 0.337-0.426 2.173-0.872 4.36-0.81 6.71 0.053 2.018 0.264 4.229 0.818 6.693 1.283 5.704 2.975 12.395 1.371 18.986" fill-opacity="0" stroke="#bdd2c6" stroke-miterlimit="10" stroke-width=".465"/>
</g>
<g transform="translate(60.211 28.528)">
<path d="m-1.459-12.178c-8e-3 0.066-0.018 0.132-0.028 0.199-0.33 2.198-0.806 4.335-0.785 6.602 0.018 1.987 0.273 4.116 1.071 6.526 1.801 5.444 4.61 11.856 3.098 18.736" fill-opacity="0" stroke="#bdd2c6" stroke-miterlimit="10" stroke-width=".465"/>
</g>
<g transform="translate(66.981 28.715)">
<path d="m-1.6-12.199c-0.0039999 0.171-0.015 0.344-0.033 0.519-0.233 2.222-0.744 4.31-0.759 6.493-0.022 1.957 0.271 4.007 1.324 6.359 2.264 5.06 6.16 11.006 4.941 18.025" fill-opacity="0" stroke="#bdd2c6" stroke-miterlimit="10" stroke-width=".465"/>
</g>
<g transform="translate(73.75 28.901)">
<path d="m-1.895-12.813c0.103 0.463 0.147 0.94 0.117 1.431-0.132 2.248-0.678 4.285-0.734 6.385-0.057 1.926 0.258 3.906 1.577 6.193 2.645 4.588 7.483 9.917 6.835 16.838" fill-opacity="0" stroke="#bdd2c6" stroke-miterlimit="10" stroke-width=".465"/>
</g>
<g transform="translate(80.52 29.088)">
<path d="m-3.633-14.952c1.001 1.131 1.732 2.448 1.709 3.868-0.07 4.408-2.166 7.743 1.121 12.303 2.805 3.89 7.988 8.277 8.605 14.372" fill-opacity="0" stroke="#bdd2c6" stroke-miterlimit="10" stroke-width=".465"/>
</g>
<g transform="translate(55.846 15.688)">
<path d="m-26.443-2.024c5.777 2.961 16.096 7.004 29.181 6.866 13.169-0.139 19.343-1.452 23.328-3.186" fill-opacity="0" stroke="#bdd2c6" stroke-miterlimit="10" stroke-width=".465"/>
</g>
<g transform="translate(55.787 24.553)">
<path d="m-28.031-1.495c6.066 2.429 16.587 5.603 29.915 5.47 12.026-0.12 19.319-1.292 24.118-2.787" fill-opacity="0" stroke="#bdd2c6" stroke-miterlimit="10" stroke-width=".465"/>
</g>
<g transform="translate(55.728 33.26)">
<path d="m-29.116-0.747c6.399 1.875 16.92 4.138 30.146 4.012 14.961-0.142 24.057-1.999 29.44-3.954" fill-opacity="0" stroke="#bdd2c6" stroke-miterlimit="10" stroke-width=".465"/>
</g>
<g transform="translate(55.669 41.165)">
<path d="m-31.851 0.29c6.53 1.405 17.734 3.198 32.027 3.069 18.2-0.164 29.585-2.972 34.945-5.228" fill-opacity="0" stroke="#bdd2c6" stroke-miterlimit="10" stroke-width=".465"/>
</g>
<g transform="translate(29.3 8.44)">
<path d="m4.338 1.804c0.952-1.428-0.997-9.081-6.014-4.633-3.614 3.205 2.364 10.106 6.014 4.633z" fill="#fff"/>
</g>
<g transform="translate(29.3 8.44)">
<path d="m4.338 1.804c0.952-1.428-0.997-9.081-6.014-4.633-3.614 3.205 2.364 10.106 6.014 4.633z" fill-opacity="0" stroke="#b2b2b2" stroke-miterlimit="10" stroke-width=".465"/>
</g>
<g transform="translate(23.651 13.712)">
<path d="m-8.335 6.816c-0.078 0.114 2.538-5.668 3.905-7.926 3.522-5.82 5.679-4.523 9.451-3.811 3.392 0.64 2.707 5.342-3.526 7.831-6.232 2.489-8.337 1.723-9.83 3.906z" fill="#ececec"/>
</g>
<g transform="translate(30.357 10.45)">
<path d="m-0.255-3.001s-2.149 1.171-2.127 3.586c0.023 2.416 4.051 1.083 4.419 0.565 0.367-0.518-1.078-0.564-1.777-2.076-0.7-1.513-0.515-2.075-0.515-2.075z" fill="#b2b2b2"/>
</g>
<g transform="translate(30.357 10.45)">
<path d="m-0.255-3.001s-2.149 1.171-2.127 3.586c0.023 2.416 4.051 1.083 4.419 0.565 0.367-0.518-1.078-0.564-1.777-2.076-0.7-1.513-0.515-2.075-0.515-2.075z" fill-opacity="0" stroke="#b2b2b2" stroke-miterlimit="10" stroke-width=".507"/>
</g>
<g transform="translate(31.361 6.345)">
<path d="m-2.688-1.52s3.602 0.309 1.764 2.193c0 0 2.843 1.97 3.227 1.245 0.384-0.726-0.437-2.932-1.49-3.438-1.052-0.506-2.119-1.123-3.501 0z" fill="#ececec"/>
</g>
</g>
<g transform="matrix(3 0 0 3 77.211 218.19)" display="block">
<g transform="translate(32.59 23.537)">
<path d="m0-16.227c-17.863 0-32.34 4.237-32.34 9.472v13.508c0 5.23 14.477 9.474 32.34 9.474s32.34-4.238 32.34-9.474v-13.508c0-5.235-14.477-9.472-32.34-9.472z" fill="#ee6947"/>
</g>
<g transform="translate(32.59 17.504)">
<path d="m-1e-3 8.456c15.952 0 28.884-3.786 28.884-8.456s-12.932-8.456-28.884-8.456c-15.952 0-28.882 3.786-28.882 8.456s12.93 8.456 28.882 8.456z" fill="#ad3d33"/>
</g>
<g transform="translate(32.941 20.457)">
<path d="m-0.264 5.56c-18.788-0.082-28.194-5.216-27.911-6.372 2.354-9.612 14.075-16.915 28.174-16.915 13.766 0 25.266 6.962 27.993 16.234 0.402 1.366-8.794 7.138-28.256 7.053z" fill="#ffcbb4"/>
</g>
<g transform="translate(16.198 13.214)">
<path d="m9.357-1.536c0 3.486-11.174 8.533-14.655 8.533-3.48 0-4.065-1.898-4.065-5.379 0-3.48 4.869-8.615 8.355-8.615 3.486 0 10.371 1.98 10.371 5.466l-0.0059996-5e-3z" fill="#ffcbb4"/>
</g>
<g transform="translate(26.208 9.048)">
<path d="m9.357-1.536c0 3.486-11.174 8.533-14.654 8.533-3.481 0-4.066-1.898-4.066-5.379 0-3.48 4.87-8.615 8.355-8.615 3.487 0 10.371 1.98 10.371 5.466l-0.0059996-5e-3z" fill="#ffcbb4"/>
</g>
<g transform="translate(41.051 9.048)">
<path d="m-9.357-1.536c0 3.486 11.174 8.533 14.654 8.533 3.487 0 4.066-1.898 4.066-5.379 0-3.48-4.87-8.615-8.356-8.615-3.486 0-10.37 1.98-10.37 5.466l0.0059996-5e-3z" fill="#ffcbb4"/>
</g>
<g transform="translate(50.411 14.313)">
<path d="m-9.357-1.536c0 3.486 11.174 8.533 14.654 8.533 3.487 0 4.066-1.898 4.066-5.379 0-3.48-4.869-8.615-8.355-8.615-3.487 0-10.371 1.98-10.371 5.466l0.0059996-5e-3z" fill="#ffcbb4"/>
</g>
<g transform="translate(33.331 5.822)">
<path d="m0 5.572c3.619 0 6.553-2.495 6.553-5.572 0-3.078-2.934-5.572-6.553-5.572s-6.553 2.494-6.553 5.572c0 3.077 2.934 5.572 6.553 5.572z" fill="#ffcbb4"/>
</g>
</g>
<g transform="matrix(2.9994 .057902 -.057902 2.9994 202.12 34.795)" display="block">
<g transform="translate(18.035 19.375)">
<path d="m-10.135-19.125c27.222 11.783 27.92 22.671 22.912 30.46-5.009 7.79-18.81 5.163-23.72-2.301-6.842-10.402 0.808-28.159 0.808-28.159z" fill="#252525"/>
</g>
</g>
<g transform="matrix(2.9943 -.18553 .18553 2.9943 108.17 31.893)" display="block">
<g transform="translate(26.048 20.51)">
<path d="m-24.049 6.215c-1.749-13.825-0.526-26.445 24.647-26.445 13.338 0 25.201 11.461 25.201 25.418 0 8.31-1.573 9.103-7.024 12.817-1.045 0.712-2.001 1.44-2.81 2.225" fill="#e99457"/>
</g>
<g transform="translate(25.459 23.846)">
<path d="m23.596 0c0 13.032-10.564 23.596-23.596 23.596-13.031 0-23.596-10.564-23.596-23.596s10.565-23.596 23.596-23.596c13.032 0 23.596 10.564 23.596 23.596z" fill="#e99457"/>
</g>
</g>
<g transform="matrix(2.6357 -.16332 .16332 2.6357 204.55 82.849)" display="block">
<g transform="translate(18.814 26.014)">
<path d="m-13.474-13.436c9.783-7.238 26.948-0.126 26.555 14.489-0.392 14.615-18.088 19.621-22.122 13.961" fill="#d76f3a"/>
</g>
<g transform="translate(18.814 26.014)">
<path d="m-13.474-13.436c9.783-7.238 26.948-0.126 26.555 14.489-0.392 14.615-18.088 19.621-22.122 13.961" fill-opacity="0" stroke="#d76f3a" stroke-linecap="round" stroke-miterlimit="10" stroke-width="2.136"/>
</g>
</g>
<g transform="matrix(2.9943 -.18553 .18553 2.9943 118.84 84.804)" display="block">
<g transform="translate(29.276 20.446)">
<path d="m2.814 20.109c13.179 0.087 26.212-20.422 16.047-27.079-9.908-6.489-20.123-10.592-20.123-10.592l-8e-3 0.023001c-9.067-2.657-27.755 16.909-19.432 28.733 2.431 3.453 2.101 8.773 23.516 8.915z" fill="#e99457"/>
</g>
<g transform="translate(33.697 40.474)">
<path d="m2.961-0.657s-2.112 1.135-5.922 1.314" fill-opacity="0" stroke="#252525" stroke-linecap="round" stroke-miterlimit="10" stroke-width="2.232"/>
</g>
</g>
<g transform="matrix(2.999 0 0 2.9991 228.27 157.86)" display="block">
<g transform="translate(3.439 3.007)">
<path d="m-4.0226-1.3658c0.098967 0.6161 0.18094 1.2262 0.52082 1.8023 0.40386 0.68211 1.1246 1.3192 2.1763 1.5022 1.8324 0.31905 3.6637-0.6161 4.5474-1.7053 0.48383-0.59509 0.71076-1.2432 0.79973-1.9223 0.032989-0.25504-0.18894-0.57209-0.43385-0.74712-0.25591-0.18403-0.4691-0.31007-0.83697-0.29807-0.86171 0.027005-1.3097 0.43811-1.5414 1.0552-0.0079968 0.053008-0.014995 0.10602-0.023992 0.15902 0.017994-0.093014 0.033989-0.18603 0.051983-0.28004-0.049982 0.26104-0.27972 0.5061-0.40968 0.75314-0.13495 0.25604 0.12396-0.17503 0.0079968-0.014001-0.042986 0.061009-0.08597 0.12402-0.13196 0.18403-0.045984 0.06001-0.095967 0.11902-0.14795 0.17603-0.031989 0.034005-0.22692 0.22103-0.050982 0.06101 0.17594-0.16103-0.02899 0.021006-0.065978 0.051011-0.063978 0.052008-0.12996 0.10201-0.19893 0.15002-0.068976 0.047008-0.14195 0.092014-0.21493 0.13702-0.20293 0.12702 0.31189-0.15902 0.036987-0.024003-0.15395 0.075013-0.31689 0.13702-0.48283 0.19903-0.13595 0.045008-0.091968 0.032006 0.13495-0.038005-0.049982 0.013002-0.098967 0.026002-0.14995 0.037003-0.098967 0.021003-0.35069 0.035008-0.44766 0.04601 0.12397-0.012002 0.40768-0.024006 0.53863-0.037008-0.14895 0.013002-0.44466 0.013005-0.58662 0.0010032l0.53564 0.038005c-0.059979-0.0070016-0.27571-0.015002-0.33169-0.027003-0.14596-0.030005 0.019801-0.084016 0.26672 0.043005-0.037987-0.020003-0.24272-0.036003-0.28271-0.052006-0.19894-0.084013 0.34769 0.13802 0.23673 0.045006-0.042986-0.036006-0.24773-0.07301-0.29171-0.10802-0.13096-0.10802 0.042989 0.058008 0.074979 0.074011-0.079978-0.041006-0.15096-0.18003-0.19495-0.24504-0.022994-0.034005-0.040989-0.069011-0.063982-0.10202 0.18095 0.25404 0.081978 0.14703 0.045987 0.069013-0.037989-0.079013-0.068981-0.16003-0.096973-0.24204-0.062982-0.18503-0.28069-0.37306-0.31568-0.56109 0.016995 0.094014 0.21071 0.18703 0.2277 0.28104-0.026992-0.15402-0.2277-0.30705-0.2507-0.46107-0.044987-0.28905-0.12697-0.53308-0.41189-0.74712-0.24493-0.18403-0.4691-0.32105-0.821-0.30905-0.3639 0.012002-0.74079 0.10202-0.99572 0.30905-0.23493 0.19303-0.46685 0.47507-0.42187 0.74712z" fill="#2a2a2a"/>
</g>
</g>
<g transform="matrix(2.9943 -.18553 .18553 2.9943 230.57 119)" display="block">
<g transform="translate(6.972 5.606)">
<path d="m1.193 5.224-2.864-0.133c-2.849-0.132-5.051-2.548-4.919-5.396 0.132-2.849 2.548-5.051 5.397-4.919l2.864 0.133c2.849 0.132 5.051 2.548 4.919 5.396-0.132 2.849-2.549 5.051-5.397 4.919z" fill="#252525"/>
</g>
</g>
<g transform="matrix(2.9953 -.16732 .16732 2.9953 32.863 51.394)" display="block">
<g transform="translate(18.861 23.355)">
<path d="m13.407-23.105c-28.646 11.754-32.018 28.715-27.786 37.463 4.231 8.748 19.291 6.014 25.014-1.956 7.976-11.107 2.772-35.507 2.772-35.507z" fill="#252525"/>
</g>
</g>
<g transform="matrix(2.6357 -.16332 .16332 2.6357 105.49 89.123)" display="block">
<g transform="translate(19.001 26.257)">
<path d="m13.609-13.771c-10.04-7.094-27.218 0.469-26.499 15.22 0.719 14.752 18.701 19.416 22.65 13.612" fill="#e99457"/>
</g>
<g transform="translate(19.001 26.257)">
<path d="m13.609-13.771c-10.04-7.094-27.218 0.469-26.499 15.22 0.719 14.752 18.701 19.416 22.65 13.612" fill-opacity="0" stroke="#d76f3a" stroke-linecap="round" stroke-miterlimit="10" stroke-width="2.157"/>
</g>
<g transform="translate(35.677 30.849)">
<path d="m1.311-4.082c0 3.29-0.794 6.217-2.622 8.164" fill="#e99457"/>
</g>
<g transform="translate(35.677 30.849)">
<path d="m1.311-4.082c0 3.29-0.794 6.217-2.622 8.164" fill-opacity="0" stroke="#d76f3a" stroke-linecap="round" stroke-miterlimit="10" stroke-width="2.157"/>
</g>
</g>
<g transform="matrix(2.636 -.16333 .16333 2.636 138.71 119.11)" display="block">
<g transform="translate(7.799 7.8)">
<path d="m6.321 2.226c-1.229 3.491-5.056 5.324-8.546 4.095-3.491-1.229-5.324-5.056-4.095-8.546 1.229-3.491 5.055-5.325 8.546-4.095 3.491 1.229 5.324 5.055 4.095 8.546z" fill="#e15d59"/>
</g>
</g>
<g transform="matrix(2.9943 -.18553 .18553 2.9943 136.37 47.357)" display="block">
<g transform="translate(15.014 12.94)">
<path d="m-5.722 3.083c1.749-4.282 7.219-6.166 11.444-0.859" fill-opacity="0" stroke="#2a2a2a" stroke-linecap="round" stroke-miterlimit="10" stroke-width="3.717"/>
</g>
<g transform="translate(34.358 11.923)">
<path d="m-4.699 2.63c1.526-3.582 6.05-5.26 9.398-0.959" fill-opacity="0" stroke="#2a2a2a" stroke-linecap="round" stroke-miterlimit="10" stroke-width="3.717"/>
</g>
</g>
</g>
</svg>
