<?xml version="1.0" encoding="UTF-8"?>
<svg style="content-visibility:visible;height:100%;width:100%" viewBox="0 0 347 291" xmlns="http://www.w3.org/2000/svg">
<defs>
<clipPath id="c">
<rect width="347" height="291"/>
</clipPath>
<mask id="b" mask-type="alpha">
<use href="#__lottie_element_3382"/>
</mask>
<mask id="a" mask-type="alpha">
<use href="#__lottie_element_3383"/>
</mask>
</defs>
<g clip-path="url(#c)">
<g transform="matrix(3 0 0 3 52.109 107.97)" display="block">
<g transform="translate(15.333 28.663)">
<path d="m3.239-1.531s-6.395 5.3924-5.3094 17.532c0.05602 0.62452 1.7974 7.117 1.7704 7.373 0.442 1.12 0.719 2.104 0.456 3.084-1.067 1.955-3.499 1.934-5.013 1.386-0.195-0.086-0.381-0.189-0.558-0.311-1.061-0.728-1.7642-2.0547-1.779-3.374-0.033683-2.6938-0.60939-6.3417-1.2742-10.441-1.7935-11.053-4.1916-25.24 2.3412-31.452 11.229-10.679 21.21 6.33 9.366 16.203z" fill="#2a2a2a"/>
</g>
</g>
<g transform="matrix(3 0 0 3 212.6 100.74)" display="block">
<g transform="translate(9.619 29.914)">
<path d="m1.998-1.142s-0.47085 4.5238 0.2205 10.837c0.38506 3.6193 1.1484 7.8551 2.5955 12.167 0.62393 1.8423 2.455 3.598 1.643 5.192-1.33 2.61-5.24 2.292-7.86 0.982-1.2123-1.0921-2.7946-5.8552-4.1015-11.526-1.9073-8.2668-3.2751-18.48-2.4155-22.075 17.289-24.099 9.918 4.423 9.918 4.423z" fill="#2a2a2a"/>
</g>
</g>
<g transform="matrix(3 0 0 3 20.357 119.72)" display="block">
<g transform="translate(16.301 17.835)">
<path d="m9.561-1.363c0-0.108-0.014-0.213-0.017-0.321-7e-3 -0.211-0.018-0.423-0.032-0.634-0.0050001-0.051-0.0060005-0.103-0.011-0.154-0.301-3.903-1.847-7.783-3.134-9.196 0 0-0.0020003 0.012-0.0020003 0.014-1.62-2.131-4.174-3.514-7.058-3.514-4.897 0-7.811 3.458-9.034 8.201-0.359 1.393-1.867 9.216-1.069 10.547-0.0020008 0.13 0.16 0.342 0.16 0.474 0 5.822 2.559 11.114 8.051 9.183 4.958-1.743 11.709-8.364 12.108-14.074 0.022-0.073 0.034-0.176 0.034-0.318 0-0.04-0.0019999-0.081-0.0019999-0.122 0-0.029 0.0059996-0.058 0.0059996-0.086z" fill="#e99457"/>
</g>
<g transform="translate(15.333 28.663)">
<path d="m3.239-1.531s-6.395 5.3924-5.3094 17.532c0.05602 0.62452 1.7974 7.117 1.7704 7.373 0.442 1.12 0.719 2.104 0.456 3.084-1.067 1.955-3.499 1.934-5.013 1.386-0.195-0.086-0.381-0.189-0.558-0.311-1.061-0.728-1.7642-2.0547-1.779-3.374-0.033683-2.6938-0.60939-6.3417-1.2742-10.441-1.7935-11.053-4.1916-25.24 2.3412-31.452 11.229-10.679 21.21 6.33 9.366 16.203z" fill="#e99457"/>
</g>
</g>
<g transform="matrix(3 .0057421 -.0057421 3 40.78 87.972)" display="block">
<g transform="translate(58.406 17.061)">
<path d="m-3.28-14.127c-1.417 1.409-2.821 3.968-6.475 5.4-3.875 1.518 2.88 9.1 2.88 9.1s17.717 14.745 18.787 10.405c1.07-4.34 1.718-10.017 1.111-18.473-0.532-7.423-16.303-6.432-16.303-6.432z" fill="#e99457"/>
</g>
<g transform="translate(61.796 9.884)">
<path d="m-9.633 0c0 5.321 4.313 9.634 9.634 9.634 5.32 0 9.632-4.313 9.632-9.634s-4.312-9.634-9.632-9.634c-5.321 0-9.634 4.313-9.634 9.634z" fill="#e99457"/>
</g>
<g transform="translate(54.222 23.96)" fill="#e99457">
<path d="m16.561 0c0-9.146-7.415-16.561-16.562-16.561-9.146 0-16.56 7.415-16.56 16.561s7.414 16.561 16.56 16.561c9.147 0 16.562-7.415 16.562-16.561z"/>
<path d="m16.561 0c0-9.146-7.415-16.561-16.562-16.561-9.146 0-16.56 7.415-16.56 16.561s7.414 16.561 16.56 16.561c9.147 0 16.562-7.415 16.562-16.561z"/>
</g>
<g transform="translate(9.118 21.717)">
<path d="m-8.868 0c0 4.898 3.97 8.868 8.868 8.868 4.897 0 8.868-3.97 8.868-8.868s-3.971-8.868-8.868-8.868c-4.898 0-8.868 3.97-8.868 8.868z" fill="#e99457"/>
</g>
<g transform="translate(31.294 24.509)">
<path d="m25.085 8.059s-5.589-0.654-5.589-0.654l-1.557-16.956 0.071001 0.061999s0.601-5.674-0.677-6.423c-0.157-0.084001-0.338-0.107-0.557-0.019-1.69 0.676-3.372 1.072-4.674 1.272-13.443 1.834-32.162 2.879-34.383 2.985-3.529 0.169-5.375 2-5.375 2l4.59 9.523s4.968 5.235 6.416 4.295c1.435-0.932 3.5-0.866 4.55-0.343 2.837 1.411 5.503 3.147 8.278 4.69 2.798 1.556 5.668 2.997 8.661 4.141 5.222 1.994 11.003 2.889 16.567 3.294 0.737 0.054 1.476 0.092999 2.215 0.085999 4.034-0.034999 1.464-7.953 1.464-7.953z" fill="#e99457"/>
</g>
<g transform="translate(34.041 18.503)">
<path d="m9.161-8.62c-14.391 1.5-22.528 2.205-22.528 2.205s-3.375 7.655 4.092 8.946c8.862 1.533 6.439 5.11 15.323 5.608 8.574 0.481 10.694-13.982 3.113-16.759z" fill="#d76f3a"/>
</g>
</g>
<g transform="matrix(3 0 0 3 181.85 113.24)" display="block">
<g transform="translate(9.619 29.914)">
<path d="m1.998-1.142s-0.47085 4.5238 0.2205 10.837c0.38506 3.6193 1.1484 7.8551 2.5955 12.167 0.62393 1.8423 2.455 3.598 1.643 5.192-1.33 2.61-5.24 2.292-7.86 0.982-1.2123-1.0921-2.7946-5.8552-4.1015-11.526-1.9073-8.2668-3.2751-18.48-2.4155-22.075 17.289-24.099 9.918 4.423 9.918 4.423z" fill="#e99457"/>
</g>
</g>
<g transform="matrix(2.9996 .04829 -.04829 2.9996 26.106 64.926)" display="block">
<g transform="translate(12.117 14.707)">
<path d="m2.062 6.747c-6.968-3.891-5.326-12.694 4.857-13.847 3.842-0.435 4.947-7.357-4.174-3.868-14.612 5.59-9.908 16.889-5.966 22.957 1.604 2.468 4.323-2.159 4.323-2.159l0.96-3.083z" fill="#e99457"/>
</g>
<g transform="translate(12.272 24.814)">
<path d="m-3.852 0c0 2.127 1.724 3.851 3.851 3.851 2.127 0 3.853-1.724 3.853-3.851s-1.726-3.851-3.853-3.851c-2.127 0-3.851 1.724-3.851 3.851z" fill="#e99457"/>
</g>
</g>
<g transform="matrix(2.9999 .027402 -.027402 2.9999 180.09 167.39)" display="block">
<g transform="translate(1.757 7.185)">
<path d="m0.601 6.935c-0.364 0-0.698-0.245-0.793-0.614-0.999-3.865-1.288-12.055-1.3-12.401-0.016-0.452 0.338-0.831 0.79-0.846 0.454-0.0089998 0.832 0.338 0.847 0.79 3e-3 0.083 0.295 8.356 1.249 12.047 0.114 0.438-0.151 0.885-0.589 0.998-0.068 0.017-0.136 0.026-0.204 0.026z" fill="#2a2a2a"/>
</g>
</g>
<g transform="matrix(3 -.0086131 .0086131 3 196.2 27.797)" display="block">
<g transform="translate(9.884 30.089)">
<path d="m-9.633 0c0 5.321 4.313 9.634 9.634 9.634 5.32 0 9.632-4.313 9.632-9.634s-4.312-9.634-9.632-9.634c-5.321 0-9.634 4.313-9.634 9.634z" fill="#e99457"/>
</g>
<g transform="translate(15.021 11.672)">
<path d="m11.423 0c0 6.308-5.114 11.422-11.422 11.422-6.309 0-11.424-5.114-11.424-11.422s5.115-11.422 11.424-11.422c6.308 0 11.422 5.114 11.422 11.422z" fill="#e99457"/>
</g>
<g transform="translate(11.921 21.449)">
<path d="m-9.593 2.663c0.802-1.079 2.4-3.657 1.301-11.604 0 0 13.704 0.98 13.704 0.98l4.181 7.582c-0.471 0.31-2.813 1.239-2.038 8.125 0.135 1.195-3.199-0.612-3.199-0.612" fill="#e99457"/>
</g>
</g>
<g transform="matrix(3 -.016919 .016919 3 203.53 4.9512)" display="block">
<g transform="translate(16.52 14.153)">
<path d="m3.338 13.902c4.032-3.061 12.379-4.511 12.607-10.728 0.325-8.909-5.632-16.138-14.146-16.449-17.157-0.627-18.069 10.479-17.197 19.412" fill="#e99457"/>
</g>
<g transform="translate(12.503 19.315)">
<path d="m11.423 0c0 6.308-5.114 11.422-11.422 11.422-6.309 0-11.424-5.114-11.424-11.422s5.115-11.422 11.424-11.422c6.308 0 11.422 5.114 11.422 11.422z" fill="#e99457"/>
</g>
</g>
<g transform="matrix(3 -.016919 .016919 3 223.51 38.685)" display="block">
<g transform="translate(21.33 9.908)">
<path d="m3.249 8.487c9.604-1.108 15.86-16.835 6.592-17.147l-20.195-0.998h-1.826c-6.93 0.117-6.272 7.013-4.897 14.009 0.169 0.86 0.1 2.198 1.378 2.76 3.238 1.425 8.797 2.547 18.948 1.376z" fill="#e99457"/>
</g>
<g transform="translate(8.925 8.925)">
<path d="m-8.676 0c0 4.791 3.884 8.675 8.675 8.675 4.792 0 8.677-3.884 8.677-8.675s-3.885-8.675-8.677-8.675c-4.791 0-8.675 3.884-8.675 8.675z" fill="#e99457"/>
</g>
<g transform="translate(30.106 5.532)">
<path d="m0.979 3.826s-2.234-0.082-2.234-0.082c-2.054-0.075-3.659-1.8-3.584-3.854l6e-3 -0.133c0.075-2.053 1.8-3.658 3.854-3.582l2.234 0.081c2.053 0.075 3.658 1.801 3.582 3.855l-0.0039997 0.132c-0.075 2.054-1.8 3.658-3.854 3.583z" fill="#2a2a2a"/>
</g>
<g transform="translate(21.062 11.382)">
<path d="m1.739 3.128c-2.658 0-5.008-1.931-5.446-4.638-0.116-0.714 0.371-1.387 1.085-1.502 0.714-0.116 1.387 0.369 1.502 1.084 0.255 1.578 1.746 2.655 3.324 2.398 0.714-0.115 1.388 0.37 1.504 1.084 0.115 0.714-0.37 1.387-1.084 1.502-0.297 0.049-0.593 0.072-0.885 0.072z" fill="#2a2a2a"/>
</g>
<g transform="translate(8.065 18.342)">
<path d="m0.803 1.281c-0.814-0.15-1.934-0.448-3.24-1.041-0.412-0.186-0.594-0.672-0.407-1.084 0.187-0.412 0.673-0.596 1.084-0.408 2.319 1.052 3.938 1.045 3.954 1.045 0.451-4e-3 0.822 0.355 0.829 0.805 0.0079999 0.451-0.347 0.823-0.798 0.832-0.041 1e-3 -0.561 0.01-1.422-0.149z" fill="#2a2a2a"/>
</g>
</g>
<g transform="matrix(3 -.016919 .016919 3 206.5 44.325)" display="block">
<g transform="translate(5.985 5.986)">
<path d="m5.622 0.205c-0.113 3.105-2.722 5.53-5.827 5.417-3.105-0.114-5.53-2.723-5.417-5.828 0.114-3.105 2.723-5.53 5.827-5.416 3.105 0.113 5.53 2.722 5.417 5.827z" fill="#e15d59"/>
</g>
</g>
<use href="#__lottie_element_3383"/>
<g display="block" mask="url(#a)">
<g transform="matrix(2.9999 -.016972 .016972 2.9999 219.43 31.376)">
<g>
<path d="m9.12 3.85c-0.07 1.88-1.65 3.35-3.53 3.28s-3.34-1.65-3.27-3.53c0.06-1.87 1.64-3.34 3.52-3.27s3.35 1.64 3.28 3.52z" fill="#2a2a2a"/>
<g transform="translate(5.716 3.728)">
<path d="m3.4 0.124c-0.069 1.878-1.646 3.344-3.524 3.276-1.878-0.069-3.345-1.647-3.276-3.524 0.069-1.878 1.646-3.345 3.524-3.276 1.878 0.068 3.345 1.646 3.276 3.524z" fill="#2a2a2a"/>
</g>
</g>
</g>
</g>
<g transform="matrix(2.9999 -.016972 .016972 2.9999 219.43 31.376)" display="block">
<g transform="translate(6.497 3.686)">
<path d="m6.247 0.228s-2.918 3.208-6.368 3.081c-3.45-0.126-6.126-3.537-6.126-3.537s2.918-3.208 6.368-3.082c3.45 0.126 6.126 3.538 6.126 3.538z" fill="#fff"/>
</g>
<g>
<g transform="translate(5.716 3.728)">
<path d="m3.4 0.124c-0.069 1.878-1.646 3.344-3.524 3.276-1.878-0.069-3.345-1.647-3.276-3.524 0.069-1.878 1.646-3.345 3.524-3.276 1.878 0.068 3.345 1.646 3.276 3.524z" fill="#2a2a2a"/>
</g>
</g>
</g>
<g transform="matrix(2.9999 -.016972 .016972 2.9999 219.43 31.376)" display="block">
<g transform="translate(6.497 3.686)" opacity="0">
<path d="m-4.458-0.228s1.831 1.661 4.295 1.787c2.464 0.126 4.63-1.331 4.63-1.331" fill-opacity="0" stroke="#2a2a2a" stroke-linecap="round" stroke-width="2"/>
</g>
</g>
<use href="#__lottie_element_3382"/>
<g display="block" mask="url(#b)">
<g transform="matrix(2.9999 -.016972 .016972 2.9999 257.33 22.986)">
<g>
<path d="m9.12 3.85c-0.07 1.88-1.65 3.35-3.53 3.28s-3.34-1.65-3.27-3.53c0.06-1.87 1.64-3.34 3.52-3.27s3.35 1.64 3.28 3.52z" fill="#2a2a2a"/>
<g transform="translate(5.716 3.728)">
<path d="m3.4 0.124c-0.069 1.878-1.646 3.344-3.524 3.276-1.878-0.069-3.345-1.647-3.276-3.524 0.069-1.878 1.646-3.345 3.524-3.276 1.878 0.068 3.345 1.646 3.276 3.524z" fill="#2a2a2a"/>
</g>
</g>
</g>
</g>
<g transform="matrix(2.9999 -.016972 .016972 2.9999 257.33 22.986)" display="block">
<g transform="translate(6.497 3.686)">
<path d="m6.247 0.228s-2.918 3.208-6.368 3.081c-3.45-0.126-6.126-3.537-6.126-3.537s2.918-3.208 6.368-3.082c3.45 0.126 6.126 3.538 6.126 3.538z" fill="#fff"/>
</g>
<g>
<g transform="translate(5.716 3.728)">
<path d="m3.4 0.124c-0.069 1.878-1.646 3.344-3.524 3.276-1.878-0.069-3.345-1.647-3.276-3.524 0.069-1.878 1.646-3.345 3.524-3.276 1.878 0.068 3.345 1.646 3.276 3.524z" fill="#2a2a2a"/>
</g>
</g>
</g>
<g transform="matrix(2.9999 -.016972 .016972 2.9999 257.33 22.986)" display="block">
<g transform="translate(6.497 3.686)" opacity="0">
<path d="m-4.458-0.228s1.831 1.661 4.295 1.787c2.464 0.126 4.63-1.331 4.63-1.331" fill-opacity="0" stroke="#2a2a2a" stroke-linecap="round" stroke-width="2"/>
</g>
</g>
<g transform="matrix(2.9999 .024918 -.024918 2.9999 157.05 19.631)" display="block">
<g transform="translate(12.229 12.653)">
<path d="m7.601-12.404c-18.665 6.748-19.58 13.991-16.557 19.399 3.024 5.408 12.349 4.223 15.936-0.559 4.998-6.665 0.621-18.84 0.621-18.84z" fill="#2a2a2a"/>
</g>
</g>
</g>
</svg>
