<?xml version="1.0" encoding="UTF-8"?>
<svg style="content-visibility:visible;height:100%;width:100%" viewBox="0 0 347 291" xmlns="http://www.w3.org/2000/svg">
<defs>
<clipPath id="c">
<rect width="347" height="291"/>
</clipPath>
<mask id="b" mask-type="alpha">
<use href="#__lottie_element_3525"/>
</mask>
<mask id="a" mask-type="alpha">
<use href="#__lottie_element_3526"/>
</mask>
</defs>
<g clip-path="url(#c)">
<g transform="matrix(3 0 0 3 37.226 115.19)" display="block">
<g transform="translate(26.94 27.307)">
<path d="m9.631-4.085s-15.803 3.059-23.221 16.675c-2.293 4.208-3.0159 8.01-3.0799 8.216-0.0020008 1.482 0.339 3.185-0.342 4.207-2.384 2.044-5.79 1.703-8.099 0.278-0.201-0.158-0.386-0.327-0.552-0.506-0.663-0.717-1.028-1.585-0.956-2.425 0.242-2.84 0.41493-6.933 0.93893-11.47 1.217-10.529 4.1831-23.448 13.26-28.637 16.284-9.31 39.111 5.169 22.051 13.662z" fill="#2a2a2a"/>
</g>
</g>
<g transform="matrix(3 0 0 3 220.55 81.207)" display="block">
<g transform="translate(11.268 33.109)">
<path d="m4.977 2.445s-0.4634 5.237-0.8114 11.548c-0.139 2.524-0.3286 8.521-0.3366 8.868-0.312 2.922 4.079 6.306 0.151 8.351-3.278 1.647-8.145 0.696-8.812-3.478-0.082-0.348-1.6615-7.253-2.3505-11.091-1.702-9.481-2.9795-21.05-0.8665-27.208 19.067-22.294 13.026 13.01 13.026 13.01z" fill="#2a2a2a"/>
</g>
</g>
<g transform="matrix(3 0 0 3 2.732 76.332)" display="block">
<g transform="translate(21.114 35.826)">
<path d="m5.843 3.073s-9.6908 2.039-15.005 14.934c-2.359 5.723-2.9572 12.054-2.9942 12.32 0.547 1.162 0.888 2.184 0.547 3.206-1.362 2.043-4.428 2.043-6.332 1.486-0.245-0.087002-0.478-0.195-0.7-0.319-1.331-0.749-2.224-2.122-2.215-3.495 0.021002-3.089 0.0012264-8.536 0.32223-14.886 0.747-14.772 3.1808-34.434 11.131-40.686 14.253-11.209 30.268 17.063 15.246 27.44z" fill="#e99457"/>
</g>
</g>
<g transform="matrix(3 .0027196 -.0027196 3 18.271 58.106)" display="block">
<g transform="translate(36.442 33.273)">
<path d="m25.815 21.702c-19.202 2.52-39.674-1.906-54.319-10.561 0 0 7.452-30.66 9.546-30.741 7.995-0.309 29.151-1.389 47.462-4.621" fill="#e99457"/>
</g>
<g transform="translate(60.773 36.734)">
<path d="m27.71-21.327c-0.164 1.314-0.323 2.607-0.48 3.875-1.524 12.272-2.887 22.239-6.634 26.905-18.007 22.42-48.306-22.809-33.977-33.699 2.624-1.994 11.466-2.543 16.211-7.627" fill="#e99457"/>
</g>
<g transform="translate(74.181 14.552)">
<path d="m14.303 0c0 7.899-6.403 14.302-14.302 14.302-7.899 0-14.304-6.403-14.304-14.302s6.405-14.302 14.304-14.302c7.899 0 14.302 6.403 14.302 14.302z" fill="#e99457"/>
</g>
<g transform="translate(61.262 32.056)">
<path d="m-23.004 0c0-12.705 10.299-23.004 23.004-23.004s23.004 10.299 23.004 23.004-10.299 23.004-23.004 23.004-23.004-10.299-23.004-23.004z" fill="#e99457"/>
</g>
<g transform="translate(17.846 31.265)">
<path d="m-17.596 0c0 9.718 7.878 17.596 17.596 17.596s17.596-7.878 17.596-17.596-7.878-17.596-17.596-17.596-17.596 7.878-17.596 17.596z" fill="#e99457"/>
</g>
<g transform="translate(39.061 21.687)">
<path d="m11.238-10.484c-17.665 1.841-27.491 2.238-27.491 2.238s-4.29 9.67 4.876 11.256c10.878 1.881 7.903 6.271 18.809 6.883 10.524 0.591 13.111-16.969 3.806-20.377z" fill="#d76f3a"/>
</g>
</g>
<g transform="matrix(3 0 0 3 181.27 140.8)" display="block">
<g transform="translate(13.905 25.247)">
<path d="m2.4915 8.313c-0.097 3.528 0.87151 7.308 1.0375 8.57 0.264 2.006 2.552 3.742 1.707 5.399-1.383 2.715-5.449 2.385-8.174 1.022-1.586-1.429-4.4294-7.314-6.5534-13.564-2.026-5.963-3.3926-12.259-2.6566-15.337 14.331-19.4 25.804-11.062 21.914-3.407-3.639 7.16-7.1155 11.534-7.2745 17.317z" fill="#e99457"/>
</g>
</g>
<g transform="matrix(2.9999 .029915 -.029915 2.9999 -10.229 34.763)" display="block">
<g transform="translate(15.683 16.121)">
<path d="m2.948 15.87s-18.381-19.933 2.999-28.112c9.487-3.629 8.336 3.571 4.339 4.023-10.59 1.199-12.346 10.446-5.05 14.403 0.326 0.177 1.931 0.665 3.28 1.311 1.164 0.558-1.112 2.686-1.112 2.686s-4.456 5.689-4.456 5.689z" fill="#e99457"/>
</g>
<g transform="translate(21.672 27.919)">
<path d="m-4.96 0c0 2.74 2.22 4.96 4.959 4.96 2.74 0 4.961-2.22 4.961-4.96s-2.221-4.96-4.961-4.96c-2.739 0-4.959 2.22-4.959 4.96z" fill="#e99457"/>
</g>
</g>
<g transform="matrix(3 .0027196 -.0027196 3 62.743 171.2)" display="block">
<g transform="translate(4.304 5.714)">
<path d="m-3.082 5.464c-0.285 0-0.563-0.143-0.725-0.403-0.247-0.4-0.124-0.925 0.276-1.172 3.494-2.165 5.8-8.611 5.823-8.675 0.156-0.444 0.642-0.678 1.086-0.52 0.443 0.156 0.676 0.643 0.52 1.086-0.102 0.288-2.534 7.079-6.532 9.556-0.14 0.087-0.295 0.128-0.448 0.128z" fill="#2a2a2a"/>
</g>
</g>
<g transform="matrix(3 .0027196 -.0027196 3 179.62 182.43)" display="block">
<g transform="translate(1.817 7.463)">
<path d="m0.625 7.213c-0.379 0-0.725-0.255-0.824-0.639-1.039-4.02-1.341-12.537-1.353-12.898-0.016-0.47 0.353-0.864 0.823-0.88 0.472-0.0089998 0.863 0.352 0.879 0.822 3e-3 0.087 0.307 8.691 1.299 12.53 0.118 0.455-0.155 0.92-0.61 1.038-0.072 0.018-0.143 0.027-0.214 0.027z" fill="#2a2a2a"/>
</g>
</g>
<g transform="matrix(3 -.0054391 .0054391 3 196.97 20.251)" display="block">
<g transform="translate(14.552 27.264)">
<path d="m14.303 0c0 7.899-6.403 14.302-14.302 14.302-7.899 0-14.304-6.403-14.304-14.302s6.405-14.302 14.304-14.302c7.899 0 14.302 6.403 14.302 14.302z" fill="#e99457"/>
</g>
<g transform="translate(19.882 13.055)">
<path d="m12.806 0c0 7.072-5.734 12.805-12.806 12.805-7.073 0-12.806-5.733-12.806-12.805s5.733-12.805 12.806-12.805c7.072 0 12.806 5.733 12.806 12.805z" fill="#e99457"/>
</g>
<g transform="translate(17.792 21.135)">
<path d="m-13.851-3.459c1.503-1.671 2.898-5.39 3.706-8.409 0.808-3.018 11.557-0.634 11.557-0.634s12.439 10.051 11.152 11.791c-1.287 1.74-1.006 3.271-1.502 7.696-0.886 7.901-7.361 1.047-7.361 1.047l-17.552-11.491z" fill="#e99457"/>
</g>
</g>
<g transform="matrix(3 -.010878 .010878 3 214.42 2.0438)" display="block">
<g transform="translate(17.061 13.97)">
<path d="m-15.728 7.228c-1.083-8.524 0.67-20.948 17.887-20.319 7.907 0.289 14.652 7.333 14.35 15.607-0.244 6.671-6.925 7.413-9.942 11.204" fill="#e99457"/>
</g>
<g transform="translate(14.02 19.139)">
<path d="m12.806 0c0 7.072-5.734 12.805-12.806 12.805-7.073 0-12.806-5.733-12.806-12.805s5.733-12.805 12.806-12.805c7.072 0 12.806 5.733 12.806 12.805z" fill="#e99457"/>
</g>
</g>
<g transform="matrix(3 -.010878 .010878 3 227.98 33.57)" display="block">
<g transform="translate(21.312 12.112)">
<path d="m9.43 7.614c8.59-2.614 11.632-18.273 4.092-18.549l-18.755-0.927v0.016001c-6.436 0.109-15.83 12.471-8.02 18.475 2.28 1.753 8.726 5.233 22.683 0.985z" fill="#e99457"/>
</g>
<g transform="translate(33.845 5.156)">
<path d="m0.909 3.553s-2.075-0.076-2.075-0.076c-1.907-0.069-3.397-1.672-3.327-3.58l0.0040002-0.122c0.07-1.908 1.673-3.398 3.58-3.328 0 0 2.075 0.076 2.075 0.076 1.907 0.07 3.397 1.672 3.327 3.58l-0.0040002 0.123c-0.07 1.907-1.673 3.397-3.58 3.327z" fill="#2a2a2a"/>
</g>
<g transform="translate(25.447 10.588)">
<path d="m1.614 2.905c-2.469 0-4.65-1.793-5.057-4.307-0.107-0.664 0.343-1.288 1.007-1.395 0.663-0.108 1.288 0.343 1.395 1.006 0.237 1.466 1.622 2.466 3.088 2.228 0.663-0.107 1.288 0.343 1.395 1.006 0.108 0.664-0.343 1.288-1.006 1.395-0.276 0.045-0.551 0.067-0.822 0.067z" fill="#2a2a2a"/>
</g>
<g transform="translate(16.348 22.222)">
<path d="m0.897 0.992c-0.769 0-1.841-0.084-3.134-0.405-0.407-0.101-0.657-0.514-0.555-0.921 0.101-0.408 0.514-0.658 0.921-0.555 2.296 0.57 3.774 0.292 3.789 0.289 0.41-0.08 0.81 0.185 0.892 0.596 0.083 0.41-0.18 0.81-0.59 0.894-0.037 8e-3 -0.51 0.102-1.323 0.102z" fill="#2a2a2a"/>
</g>
</g>
<g transform="matrix(3 -.010878 .010878 3 223.68 38.736)" display="block">
<g transform="translate(5.576 5.577)">
<path d="m5.222 0.19c-0.105 2.884-2.529 5.137-5.413 5.031-2.883-0.105-5.136-2.528-5.03-5.412 0.105-2.883 2.528-5.135 5.412-5.03 2.883 0.106 5.136 2.527 5.031 5.411z" fill="#e15d59"/>
</g>
</g>
<g transform="matrix(3 .016317 -.016317 3 166.83 19.698)" display="block">
<g transform="translate(12.446 12.879)">
<path d="m7.739-12.629c-19.004 6.87-19.935 14.245-16.856 19.751 3.079 5.507 12.573 4.299 16.224-0.57 5.089-6.786 0.632-19.181 0.632-19.181z" fill="#2a2a2a"/>
</g>
</g>
<use href="#__lottie_element_3526"/>
<g display="block" mask="url(#a)">
<g transform="matrix(3 -.0049616 .0049616 3 232.86 27.044)">
<g>
<path d="m9.12 3.85c-0.07 1.88-1.65 3.35-3.53 3.28s-3.34-1.65-3.27-3.53c0.06-1.87 1.64-3.34 3.52-3.27s3.35 1.64 3.28 3.52z" fill="#2a2a2a"/>
<g transform="translate(5.716 3.728)">
<path d="m3.4 0.124c-0.069 1.878-1.646 3.344-3.524 3.276-1.878-0.069-3.345-1.647-3.276-3.524 0.069-1.878 1.646-3.345 3.524-3.276 1.878 0.068 3.345 1.646 3.276 3.524z" fill="#2a2a2a"/>
</g>
</g>
</g>
</g>
<g transform="matrix(3 -.0049616 .0049616 3 232.86 27.044)" display="block">
<g transform="translate(6.497 3.686)">
<path d="m6.247 0.228s-2.918 3.208-6.368 3.081c-3.45-0.126-6.126-3.537-6.126-3.537s2.918-3.208 6.368-3.082c3.45 0.126 6.126 3.538 6.126 3.538z" fill="#fff"/>
</g>
<g>
<g transform="translate(5.716 3.728)">
<path d="m3.4 0.124c-0.069 1.878-1.646 3.344-3.524 3.276-1.878-0.069-3.345-1.647-3.276-3.524 0.069-1.878 1.646-3.345 3.524-3.276 1.878 0.068 3.345 1.646 3.276 3.524z" fill="#2a2a2a"/>
</g>
</g>
</g>
<g transform="matrix(3 -.0049616 .0049616 3 232.86 27.044)" display="block">
<g transform="translate(6.497 3.686)" opacity="0">
<path d="m-4.458-0.228s1.831 1.661 4.295 1.787c2.464 0.126 4.63-1.331 4.63-1.331" fill-opacity="0" stroke="#2a2a2a" stroke-linecap="round" stroke-width="2"/>
</g>
</g>
<use href="#__lottie_element_3525"/>
<g display="block" mask="url(#b)">
<g transform="matrix(3 -.0049616 .0049616 3 270.8 18.805)">
<g>
<path d="m9.12 3.85c-0.07 1.88-1.65 3.35-3.53 3.28s-3.34-1.65-3.27-3.53c0.06-1.87 1.64-3.34 3.52-3.27s3.35 1.64 3.28 3.52z" fill="#2a2a2a"/>
<g transform="translate(5.716 3.728)">
<path d="m3.4 0.124c-0.069 1.878-1.646 3.344-3.524 3.276-1.878-0.069-3.345-1.647-3.276-3.524 0.069-1.878 1.646-3.345 3.524-3.276 1.878 0.068 3.345 1.646 3.276 3.524z" fill="#2a2a2a"/>
</g>
</g>
</g>
</g>
<g transform="matrix(3 -.0049616 .0049616 3 270.8 18.805)" display="block">
<g transform="translate(6.497 3.686)">
<path d="m6.247 0.228s-2.918 3.208-6.368 3.081c-3.45-0.126-6.126-3.537-6.126-3.537s2.918-3.208 6.368-3.082c3.45 0.126 6.126 3.538 6.126 3.538z" fill="#fff"/>
</g>
<g>
<g transform="translate(5.716 3.728)">
<path d="m3.4 0.124c-0.069 1.878-1.646 3.344-3.524 3.276-1.878-0.069-3.345-1.647-3.276-3.524 0.069-1.878 1.646-3.345 3.524-3.276 1.878 0.068 3.345 1.646 3.276 3.524z" fill="#2a2a2a"/>
</g>
</g>
</g>
<g transform="matrix(3 -.0049616 .0049616 3 270.8 18.805)" display="block">
<g transform="translate(6.497 3.686)" opacity="0">
<path d="m-4.458-0.228s1.831 1.661 4.295 1.787c2.464 0.126 4.63-1.331 4.63-1.331" fill-opacity="0" stroke="#2a2a2a" stroke-linecap="round" stroke-width="2"/>
</g>
</g>
</g>
</svg>
