<?xml version="1.0" encoding="UTF-8"?>
<svg style="content-visibility:visible;height:100%;width:100%" viewBox="0 0 347 291" xmlns="http://www.w3.org/2000/svg">
<defs>
<clipPath id="c">
<rect width="347" height="291"/>
</clipPath>
<mask id="b" mask-type="alpha">
<use href="#__lottie_element_3454"/>
</mask>
<mask id="a" mask-type="alpha">
<use href="#__lottie_element_3455"/>
</mask>
</defs>
<g clip-path="url(#c)">
<g transform="matrix(3 0 0 3 43.223 131.04)" display="block">
<g transform="translate(8.927 35.298)">
<path d="m-5.0118-14.387c-3.102 8.676-3.1392 19.056-3.6012 24.472-0.065001 0.769 0.268 1.565 0.875 2.222 0.152 0.164 0.321 0.319 0.505 0.463 2.115 1.305 5.235 1.617 7.419-0.254 0.624-0.936 0.312-2.496 0.314-3.853 0.058-0.188 0.109-0.367 0.155-0.53 0.045-0.163 0.084-0.312 0.117-0.442 1.487-5.833 4.2072-10.175 7.6092-13.382" fill="#2a2a2a"/>
</g>
<g transform="translate(11.939 23.692)">
<path d="m-8.4822 0c0 4.521 3.6654 8.186 8.1864 8.186 4.52 0 8.185-3.665 8.185-8.186s-3.665-8.186-8.185-8.186c-4.521 0-8.1864 3.665-8.1864 8.186z" fill="#2a2a2a"/>
</g>
<g transform="translate(23.873 11.971)">
<path d="m-11.721 0c0 6.473 5.248 11.721 11.721 11.721s11.721-5.248 11.721-11.721-5.248-11.721-11.721-11.721-11.721 5.248-11.721 11.721z" fill="#2a2a2a"/>
</g>
<g transform="translate(17.79 15.791)">
<path d="m-0.47798 13.816c3.601-3.395 7.926-5.516 11.03-6.783 3.027-1.235 2.812-4.551 2.812-4.551 0.104-12.425-13.406-16.298-13.406-16.298-3.743 2.204-10.209 11.764-10.213 11.77-1.506 2.115-2.685 4.564-3.616 7.166" fill="#2a2a2a"/>
</g>
<g transform="translate(11.939 23.692)">
<path d="m-8.478 0c0 4.521 3.6654 8.186 8.1864 8.186 4.52 0 8.185-3.665 8.185-8.186s-3.665-8.186-8.185-8.186c-4.521 0-8.1864 3.665-8.1864 8.186z" fill="#2a2a2a"/>
</g>
</g>
<g transform="matrix(3 0 0 3 210.16 142.64)" display="block">
<g transform="translate(7.079 37.63)">
<path d="m4.5807-10.145c-0.483 3.224-0.65872 7.218-1.1077 11-0.036 0.319-0.073 0.636-0.108 0.952-0.512 2.642 3.231 6.072-0.512 7.632-3.119 1.248-7.487 9.9945e-4 -7.77-3.86-0.048-0.324-0.097-0.665-0.148-1.022-0.539-3.809-1.6183-9.464-1.9213-15.245" fill="#2a2a2a"/>
</g>
<g transform="translate(6.297 26.636)">
<path d="m-6.1973 0c0 3.207 2.6 5.807 5.807 5.807 3.207 0 5.807-2.6 5.807-5.807s-2.6-5.807-5.807-5.807c-3.207 0-5.807 2.6-5.807 5.807z" fill="#2a2a2a"/>
</g>
<g transform="translate(7.788 14.639)">
<path d="m6.977-7.956c-0.491-4.89-13.776-0.011-13.776-0.011-0.057 1.366-1.1053 16.298-0.89728 20.27l11.568 0.543c0.574-3.84 1.031-6.588 1.031-6.588s2.6353-8.626 2.0743-14.214z" fill="#2a2a2a"/>
</g>
<g transform="translate(7.673 16.347)">
<path d="m-1.7657 4.482c3.207 0 5.8074 2.6 5.8074 5.807 0 3.208-2.6004 5.808-5.8074 5.808-3.207 0-5.807-2.6-5.807-5.808 0-3.207 2.6-5.807 5.807-5.807zm8.9487-13.636c0-3.835-3.11-6.943-6.944-6.943-3.835 0-6.943 3.108-6.943 6.943 0 3.835 3.108 6.943 6.943 6.943 3.834 0 6.944-3.108 6.944-6.943z" fill="#2a2a2a"/>
</g>
</g>
<g transform="matrix(3 0 0 3 11.348 102.55)" display="block">
<g transform="translate(7.071 49.451)">
<path d="m6.5811-9.576c-2.271 4.175-4.0261 9.42-4.9701 15.807-0.064 0.43-0.163 1.043-0.316 1.728-0.05 0.228-0.106 0.465-0.14 0.709 0.502 1.064 0.814 1.999 0.502 2.935-1.248 1.872-4.057 1.872-5.8 1.362-0.225-0.08-0.439-0.178-0.643-0.293-1.219-0.685-2.035-1.943-2.027-3.2 0.029-4.251-0.1643-13.398 0.8007-22.947" fill="#e99457"/>
</g>
<g transform="translate(7.979 36.67)">
<path d="m-6.9533 0c0 3.708 3.006 6.713 6.713 6.713 3.708 0 6.7144-3.005 6.7144-6.713s-3.0064-6.713-6.7144-6.713c-3.707 0-6.713 3.005-6.713 6.713z" fill="#e99457"/>
</g>
<g transform="translate(18.237 20.063)">
<path d="m-17.179 15.913c1.171-11.592 3.9349-23.774 9.4259-28.502 8.39-7.224 24.692 12.352 14.21 19.547 0 0-6.2559 4.051-11.043 12.854" fill="#e99457"/>
</g>
<g transform="translate(18.341 16.645)">
<path d="m-12.077 0c0 6.67 5.406 12.078 12.077 12.078 6.67 0 12.077-5.408 12.077-12.078s-5.407-12.078-12.077-12.078c-6.671 0-12.077 5.408-12.077 12.078z" fill="#e99457"/>
</g>
<g transform="translate(7.979 36.67)">
<path d="m-6.9609 0c0 3.708 3.006 6.713 6.713 6.713 3.708 0 6.7144-3.005 6.7144-6.713s-3.0064-6.713-6.7144-6.713c-3.707 0-6.713 3.005-6.713 6.713z" fill="#e99457"/>
</g>
</g>
<g transform="matrix(3 .015896 -.015896 3 29.784 76.347)" display="block">
<g transform="translate(12.327 25.42)">
<path d="m-12.077 0c0 6.67 5.406 12.078 12.077 12.078 6.67 0 12.077-5.408 12.077-12.078s-5.407-12.078-12.077-12.078c-6.671 0-12.077 5.408-12.077 12.078z" fill="#e99457"/>
</g>
<g transform="translate(54.306 28.847)">
<path d="m-19.821 0c0-10.947 8.874-19.821 19.821-19.821s19.821 8.874 19.821 19.821-8.874 19.821-19.821 19.821-19.821-8.874-19.821-19.821z" fill="#e99457"/>
</g>
<g transform="translate(33.006 29.007)">
<path d="m17.671-19.65c-2.849 0.492-4.241 1.212-8.158 1.875-16.213 1.782-30.695 2.125-30.695 2.125l1.349 19.321c7.938 1.216 14.955 6.562 22.848 10.425 0 0 0.0039999 0.0060005 0.0039999 0.0060005 0.028 0.012 0.064 0.028 0.093 0.040999 1.8 0.877 3.646 1.674 5.559 2.328 3.828 1.496 8.286 2.996 11.022 3.125 1.119 0.052999 1.489-0.55 1.45-1.472-0.079-1.928-3.472-37.774-3.472-37.774z" fill="#e99457"/>
</g>
<g transform="translate(62.697 25.848)">
<path d="m15.601-11.967c-0.353-7.92-5.789-7.227-11.803-5.754-4.554-2.091-8.636-3.76-9.045-3.261-2.261 2.753-5.866 4.12-9.071 5.1-2.658 0.812 13.039 37.363 14.939 36.528 5.382-2.367 8.941-7.717 11.247-13.96 1.601-3.473 3.03-7.773 4.215-13.029 0 0 0.102-0.422 0.151-0.656 0.023001-0.109 0.049002-0.21 0.073-0.319 0.0040016-0.036 0.61-3.414 0.668-3.907 0.0019989-0.019-0.509-0.295-1.374-0.742z" fill="#e99457"/>
</g>
<g transform="translate(67.213 12.835)">
<path d="m12.585 0c0 6.951-5.635 12.585-12.585 12.585-6.951 0-12.585-5.634-12.585-12.585s5.634-12.585 12.585-12.585c6.95 0 12.585 5.634 12.585 12.585z" fill="#e99457"/>
</g>
<g transform="translate(54.306 28.847)">
<path d="m-19.821 0c0-10.947 8.874-19.821 19.821-19.821s19.821 8.874 19.821 19.821-8.874 19.821-19.821 19.821-19.821-8.874-19.821-19.821z" fill="#e99457"/>
</g>
<g transform="translate(34.593 20.598)">
<path d="m10.292-9.601c-16.178 1.686-25.177 2.049-25.177 2.049s-3.929 8.856 4.465 10.308c9.962 1.723 7.239 5.743 17.226 6.304 9.638 0.541 12.008-15.54 3.486-18.661z" fill="#d76f3a"/>
</g>
</g>
<g transform="matrix(3 0 0 3 171.79 165.53)" display="block">
<g transform="translate(11.509 31.467)">
<path d="m-8.4368-8.817c1.829 7.359 6.1758 16.296 8.1058 18.035 2.496 1.248 6.22 1.55 7.488-0.935 0.774-1.519-1.324-3.108-1.565-4.946-0.307-2.33-2.0612-14.105-2.0612-14.105" fill="#e99457"/>
</g>
<g transform="translate(9.462 21.185)">
<path d="m-6.5568 0c0 3.342 2.7086 6.05 6.0496 6.05 3.342 0 6.051-2.708 6.051-6.05s-2.709-6.05-6.051-6.05c-3.341 0-6.0496 2.708-6.0496 6.05z" fill="#e99457"/>
</g>
<g transform="translate(8.632 13.177)">
<path d="m6.4078 7.522c0.0070004-0.033 0.014-0.065 0.02-0.099 0.1-0.487 0.189-0.977 0.275-1.467 0.161-0.917 1.2172-5.065 1.3032-6.222 0.087001-1.188 0.133-2.381 0.093-3.571-0.035-1.036-0.126-2.085-0.396-3.089-0.197-0.731-0.502-1.513-1.099-2.013-0.573-0.48-1.314-0.534-2.016-0.347-1.186 0.316-12.727 6.022-12.7 6.449 0.016001 0.256 2.0928 10.463 2.5518 12.31" fill="#e99457"/>
</g>
<g transform="translate(9.462 21.185)">
<path d="m-6.5568 0c0 3.342 2.7086 6.05 6.0496 6.05 3.342 0 6.051-2.708 6.051-6.05s-2.709-6.05-6.051-6.05c-3.341 0-6.0496 2.708-6.0496 6.05z" fill="#e99457"/>
</g>
<g transform="translate(8.481 8.481)">
<path d="m8.231 0c0-4.546-3.685-8.231-8.231-8.231s-8.231 3.685-8.231 8.231 3.1788 8.231 7.7248 8.231c4.546 0 8.7372-3.685 8.7372-8.231z" fill="#e99457"/>
</g>
</g>
<g transform="matrix(2.9949 .17476 -.17476 2.9949 16.22 55.416)" display="block">
<g transform="translate(12.257 14.353)">
<path d="m3.319-10.78c-15.326 5.863-8.342 18.321-4.584 23.457 1.043 1.426 5.767-5.771 5.554-5.918-0.393-0.272-1.333-0.575-1.951-0.88-6.229-3.801-4.569-11.896 4.956-12.974 3.66-0.415 4.713-7.008-3.975-3.685z" fill="#e99457"/>
</g>
<g transform="translate(14.413 24.686)">
<path d="m-4.162 0c0 2.299 1.863 4.162 4.162 4.162s4.162-1.863 4.162-4.162-1.863-4.162-4.162-4.162-4.162 1.863-4.162 4.162z" fill="#e99457"/>
</g>
</g>
<g transform="matrix(3 .015896 -.015896 3 81.865 158.93)" display="block">
<g transform="translate(3.963 5.254)">
<path d="m-2.822 5.004c-0.261 0-0.516-0.131-0.664-0.369-0.227-0.366-0.114-0.847 0.252-1.074 3.2-1.982 5.312-7.885 5.333-7.944 0.143-0.406 0.588-0.621 0.995-0.476 0.406 0.143 0.619 0.589 0.476 0.995-0.093 0.263-2.32 6.482-5.982 8.751-0.128 0.079-0.27 0.117-0.41 0.117z" fill="#2a2a2a"/>
</g>
</g>
<g transform="matrix(3 .015896 -.015896 3 172.73 180.36)" display="block">
<g transform="translate(1.685 6.855)">
<path d="m0.573 6.605c-0.347 0-0.665-0.232-0.755-0.584-0.952-3.681-1.228-11.483-1.239-11.813-0.015-0.431 0.323-0.791 0.754-0.806 0.432-0.0079999 0.791 0.323 0.806 0.754 3e-3 0.079 0.281 7.959 1.19 11.475 0.107 0.417-0.143 0.842-0.56 0.95-0.066 0.017-0.131 0.024-0.196 0.024z" fill="#2a2a2a"/>
</g>
</g>
<g transform="matrix(2.9998 -.031792 .031792 2.9998 191.82 32.473)" display="block">
<g transform="translate(15.485 21.194)">
<path d="m-12.392-1.236c0.953-1.167 1.664-2.583 2.003-4.322v-9.9993e-4c0.174-0.896 0.252-1.879 0.211-2.957-0.018-0.474 22.57 5.774 22.138 6.431-0.433 0.657-0.728 1.385-0.829 2.218-0.388 3.18-0.809 6.129-1.305 8.857l-22.218-10.226z" fill="#e99457"/>
</g>
<g transform="translate(12.835 27.953)">
<path d="m12.585 0c0 6.951-5.635 12.585-12.585 12.585-6.951 0-12.585-5.634-12.585-12.585s5.634-12.585 12.585-12.585c6.95 0 12.585 5.634 12.585 12.585z" fill="#e99457"/>
</g>
<g transform="translate(17.4 12.348)">
<path d="m12.098 0c0 6.682-5.417 12.098-12.098 12.098-6.682 0-12.098-5.416-12.098-12.098s5.416-12.098 12.098-12.098c6.681 0 12.098 5.416 12.098 12.098z" fill="#e99457"/>
</g>
</g>
<g transform="matrix(2.9993 -.06358 .06358 2.9993 204.65 1.7107)" display="block">
<g transform="translate(17.092 14.851)">
<path d="m5.732 14.601c2.662-4.04 10.534-5.442 10.801-12.739 0.31-8.486-6.61-15.71-14.719-16.007-12.471-0.456-17.026 5.766-18.238 12.541-0.213 0.982-0.332 2-0.338 3.045-0.0010014 0.015-0.0020008 0.03-0.0020008 0.045 0 0.014-0.0020008 0.027-0.0020008 0.042v0.011c-0.075998 1.782 0.029001 3.538 0.235 5.156 0.068001 0.534 0.108 1.046 0.125 1.538" fill="#e99457"/>
</g>
<g transform="translate(12.778 22.693)">
<path d="m12.098 0c0 6.682-5.417 12.098-12.098 12.098-6.682 0-12.098-5.416-12.098-12.098s5.416-12.098 12.098-12.098c6.681 0 12.098 5.416 12.098 12.098z" fill="#e99457"/>
</g>
</g>
<g transform="matrix(2.9993 -.06358 .06358 2.9993 230.88 32.98)" display="block">
<g transform="translate(20.125 10.759)">
<path d="m6.752 7.626c8.81-2.681 11.852-16.901 4.118-17.184 0 0-19.235-0.951-19.235-0.951v0.017c-6.601 0.112-10.24 8.97-6.961 17.481 0.51 1.324 1.99 3.18 5.491 3.344 3.779 0.176 9.156-0.445 16.587-2.707z" fill="#e99457"/>
</g>
<g transform="translate(10.685 10.685)">
<path d="m-10.435 0c0 5.763 4.672 10.435 10.435 10.435s10.435-4.672 10.435-10.435-4.672-10.435-10.435-10.435-10.435 4.672-10.435 10.435z" fill="#e99457"/>
</g>
<g transform="translate(29.981 5.282)">
<path d="m0.932 3.645-2.128-0.079c-1.956-0.071-3.484-1.715-3.413-3.671l0.0050001-0.126c0.071-1.957 1.715-3.485 3.671-3.413 0 0 2.128 0.078 2.128 0.078 1.957 0.071 3.485 1.715 3.413 3.671l-0.0039997 0.126c-0.072 1.957-1.716 3.485-3.672 3.414z" fill="#2a2a2a"/>
</g>
<g transform="translate(21.367 10.853)">
<path d="m1.656 2.98c-2.532 0-4.769-1.84-5.187-4.419-0.11-0.68 0.353-1.321 1.033-1.431 0.68-0.11 1.321 0.352 1.431 1.033 0.243 1.503 1.664 2.53 3.167 2.285 0.68-0.109 1.321 0.352 1.431 1.033 0.11 0.68-0.352 1.321-1.032 1.431-0.283 0.046-0.565 0.068-0.843 0.068z" fill="#2a2a2a"/>
</g>
<g transform="translate(10.738 21.454)">
<path d="m0.92 1.018c-0.789 0-1.888-0.086-3.214-0.416-0.418-0.103-0.673-0.527-0.569-0.945 0.104-0.418 0.528-0.674 0.945-0.568 2.354 0.584 3.87 0.299 3.885 0.296 0.421-0.082 0.832 0.189 0.916 0.61 0.085 0.421-0.185 0.831-0.606 0.918-0.038 7e-3 -0.523 0.105-1.357 0.105z" fill="#2a2a2a"/>
</g>
</g>
<g transform="matrix(2.9993 -.06358 .06358 2.9993 212.39 38.65)" display="block">
<g transform="translate(5.713 5.713)">
<path d="m5.355 0.196c-0.108 2.957-2.593 5.267-5.551 5.159-2.957-0.108-5.267-2.593-5.159-5.55 0.108-2.958 2.593-5.268 5.551-5.16 2.957 0.108 5.267 2.594 5.159 5.551z" fill="#e15d59"/>
</g>
</g>
<g transform="matrix(2.9985 .095362 -.095362 2.9985 153.8 17.414)" display="block">
<g transform="translate(12.759 13.202)">
<path d="m7.937-12.952c-19.492 7.047-20.446 14.609-17.288 20.257 3.157 5.647 12.895 4.41 16.64-0.584 5.22-6.96 0.648-19.673 0.648-19.673z" fill="#2a2a2a"/>
</g>
</g>
<use href="#__lottie_element_3455"/>
<g display="block" mask="url(#a)">
<g transform="matrix(2.9994 -.057664 .057664 2.9994 223.04 25.988)">
<g>
<path d="m9.12 3.85c-0.07 1.88-1.65 3.35-3.53 3.28s-3.34-1.65-3.27-3.53c0.06-1.87 1.64-3.34 3.52-3.27s3.35 1.64 3.28 3.52z" fill="#2a2a2a"/>
<g transform="translate(5.716 3.728)">
<path d="m3.4 0.124c-0.069 1.878-1.646 3.344-3.524 3.276-1.878-0.069-3.345-1.647-3.276-3.524 0.069-1.878 1.646-3.345 3.524-3.276 1.878 0.068 3.345 1.646 3.276 3.524z" fill="#2a2a2a"/>
</g>
</g>
</g>
</g>
<g transform="matrix(2.9994 -.057664 .057664 2.9994 223.04 25.988)" display="block">
<g transform="translate(6.497 3.686)">
<path d="m6.247 0.228s-2.918 3.208-6.368 3.081c-3.45-0.126-6.126-3.537-6.126-3.537s2.918-3.208 6.368-3.082c3.45 0.126 6.126 3.538 6.126 3.538z" fill="#fff"/>
</g>
<g>
<g transform="translate(5.716 3.728)">
<path d="m3.4 0.124c-0.069 1.878-1.646 3.344-3.524 3.276-1.878-0.069-3.345-1.647-3.276-3.524 0.069-1.878 1.646-3.345 3.524-3.276 1.878 0.068 3.345 1.646 3.276 3.524z" fill="#2a2a2a"/>
</g>
</g>
</g>
<g transform="matrix(2.9994 -.057664 .057664 2.9994 223.04 25.988)" display="block">
<g transform="translate(6.497 3.686)" opacity="0">
<path d="m-4.458-0.228s1.831 1.661 4.295 1.787c2.464 0.126 4.63-1.331 4.63-1.331" fill-opacity="0" stroke="#2a2a2a" stroke-linecap="round" stroke-width="2"/>
</g>
</g>
<use href="#__lottie_element_3454"/>
<g display="block" mask="url(#b)">
<g transform="matrix(2.9994 -.057664 .057664 2.9994 260.83 17.084)">
<g>
<path d="m9.12 3.85c-0.07 1.88-1.65 3.35-3.53 3.28s-3.34-1.65-3.27-3.53c0.06-1.87 1.64-3.34 3.52-3.27s3.35 1.64 3.28 3.52z" fill="#2a2a2a"/>
<g transform="translate(5.716 3.728)">
<path d="m3.4 0.124c-0.069 1.878-1.646 3.344-3.524 3.276-1.878-0.069-3.345-1.647-3.276-3.524 0.069-1.878 1.646-3.345 3.524-3.276 1.878 0.068 3.345 1.646 3.276 3.524z" fill="#2a2a2a"/>
</g>
</g>
</g>
</g>
<g transform="matrix(2.9994 -.057664 .057664 2.9994 260.83 17.084)" display="block">
<g transform="translate(6.497 3.686)">
<path d="m6.247 0.228s-2.918 3.208-6.368 3.081c-3.45-0.126-6.126-3.537-6.126-3.537s2.918-3.208 6.368-3.082c3.45 0.126 6.126 3.538 6.126 3.538z" fill="#fff"/>
</g>
<g>
<g transform="translate(5.716 3.728)">
<path d="m3.4 0.124c-0.069 1.878-1.646 3.344-3.524 3.276-1.878-0.069-3.345-1.647-3.276-3.524 0.069-1.878 1.646-3.345 3.524-3.276 1.878 0.068 3.345 1.646 3.276 3.524z" fill="#2a2a2a"/>
</g>
</g>
</g>
<g transform="matrix(2.9994 -.057664 .057664 2.9994 260.83 17.084)" display="block">
<g transform="translate(6.497 3.686)" opacity="0">
<path d="m-4.458-0.228s1.831 1.661 4.295 1.787c2.464 0.126 4.63-1.331 4.63-1.331" fill-opacity="0" stroke="#2a2a2a" stroke-linecap="round" stroke-width="2"/>
</g>
</g>
</g>
</svg>
